<?xml version="1.0" encoding="UTF-8" standalone="no"?>
<!-- Created with Inkscape (http://www.inkscape.org/) -->
<svg xmlns:rdf="http://www.w3.org/1999/02/22-rdf-syntax-ns#" xmlns="http://www.w3.org/2000/svg" height="586.17" width="1300" version="1.1" xmlns:cc="http://creativecommons.org/ns#" xmlns:xlink="http://www.w3.org/1999/xlink" xmlns:dc="http://purl.org/dc/elements/1.1/">
 <defs>
  <linearGradient id="linearGradient3859" y2="188.75" gradientUnits="userSpaceOnUse" x2="185.89" y1="283.64" x1="185.89">
   <stop stop-color="#ff6060" offset="0"/>
   <stop stop-color="#ffa0a0" offset="1"/>
  </linearGradient>
  <linearGradient id="linearGradient3859-1" y2="188.75" gradientUnits="userSpaceOnUse" x2="185.89" y1="283.64" x1="185.89">
   <stop stop-color="#60ff60" offset="0"/>
   <stop stop-color="#a0ffa0" offset="1"/>
  </linearGradient>
  <linearGradient id="linearGradient3859-1-4" y2="188.75" gradientUnits="userSpaceOnUse" x2="185.89" y1="283.64" x1="185.89">
   <stop stop-color="#6060ff" offset="0"/>
   <stop stop-color="#a0a0ff" offset="1"/>
  </linearGradient>
  <filter id="filter5299" height="1.4516364" width="1.0856552" color-interpolation-filters="sRGB" y="-0.22581819" x="-0.042827588">
   <feGaussianBlur stdDeviation="1.035"/>
  </filter>
  <filter id="filter5299-8" width="1.0856552" y="-0.22581819" x="-0.042827588" height="1.4516364" color-interpolation-filters="sRGB">
   <feGaussianBlur stdDeviation="1.035"/>
  </filter>
  <filter id="filter5299-5" width="1.0856552" y="-0.22581819" x="-0.042827588" height="1.4516364" color-interpolation-filters="sRGB">
   <feGaussianBlur stdDeviation="1.035"/>
  </filter>
  <linearGradient id="linearGradient5532-5" y2="256.35" gradientUnits="userSpaceOnUse" x2="75.34" y1="355.98" x1="75.34">
   <stop stop-color="#a0a0ff" offset="0"/>
   <stop stop-color="#FFF" offset="0.5"/>
   <stop stop-color="#ffffa0" offset="1"/>
  </linearGradient>
  <linearGradient id="linearGradient5684" y2="256.35" gradientUnits="userSpaceOnUse" x2="75.34" y1="355.98" x1="75.34">
   <stop stop-color="#a0ffa0" offset="0"/>
   <stop stop-color="#FFF" offset="0.5"/>
   <stop stop-color="#ffa0ff" offset="1"/>
  </linearGradient>
  <filter id="filter5299-0" width="1.0856552" y="-0.22581819" x="-0.042827588" height="1.4516364" color-interpolation-filters="sRGB">
   <feGaussianBlur stdDeviation="1.035"/>
  </filter>
  <filter id="filter5299-0-5" width="1.0856552" y="-0.22581819" x="-0.042827588" height="1.4516364" color-interpolation-filters="sRGB">
   <feGaussianBlur stdDeviation="1.035"/>
  </filter>
  <filter id="filter5299-0-5-2" width="1.0856552" y="-0.22581819" x="-0.042827588" height="1.4516364" color-interpolation-filters="sRGB">
   <feGaussianBlur stdDeviation="1.035"/>
  </filter>
  <linearGradient id="linearGradient6165-49">
   <stop stop-color="#c00000" offset="0"/>
   <stop stop-color="#c00000" stop-opacity="0" offset="1"/>
  </linearGradient>
  <linearGradient id="linearGradient6367" y2="227.72" xlink:href="#linearGradient6165-49" gradientUnits="userSpaceOnUse" y1="209.06" gradientTransform="matrix(-1,0,0,-1,76.23,463.89577)" x2="48.75" x1="48.75"/>
  <linearGradient id="linearGradient6165-49-4">
   <stop stop-color="#00c000" offset="0"/>
   <stop stop-color="#00c000" stop-opacity="0" offset="1"/>
  </linearGradient>
  <linearGradient id="linearGradient6401" y2="227.72" xlink:href="#linearGradient6165-49-4" gradientUnits="userSpaceOnUse" y1="209.06" gradientTransform="matrix(-1,0,0,-1,98.500004,463.89536)" x2="48.75" x1="48.75"/>
  <linearGradient id="linearGradient6165-49-42">
   <stop stop-color="#0000c0" offset="0"/>
   <stop stop-color="#0000c0" stop-opacity="0" offset="1"/>
  </linearGradient>
  <linearGradient id="linearGradient6435" y2="227.72" xlink:href="#linearGradient6165-49-42" gradientUnits="userSpaceOnUse" y1="209.06" gradientTransform="matrix(-1,0,0,-1,120.77,463.89536)" x2="48.75" x1="48.75"/>
  <linearGradient id="linearGradient3289" y2="256.35" gradientUnits="userSpaceOnUse" x2="75.34" y1="355.98" x1="75.34">
   <stop stop-color="#c0c0c0" offset="0"/>
   <stop stop-color="#e0e0e0" offset="1"/>
  </linearGradient>
  <radialGradient id="radialGradient4550" gradientUnits="userSpaceOnUse" cy="135.84" cx="49.25" gradientTransform="matrix(4.2180944,0,0,2.1785624,-417.25682,-246.80352)" r="49.25">
   <stop stop-color="#ff6060" offset="0"/>
   <stop stop-color="#803030" offset="1"/>
  </radialGradient>
  <linearGradient id="linearGradient4553" y2="227.72" gradientUnits="userSpaceOnUse" x2="48.75" gradientTransform="matrix(2,0,0,2,-308.01568,-243.09091)" y1="209.06" x1="48.75">
   <stop stop-color="#c00000" offset="0"/>
   <stop stop-color="#c00000" stop-opacity="0" offset="1"/>
  </linearGradient>
  <linearGradient id="linearGradient4562" y2="195.86" gradientUnits="userSpaceOnUse" x2="144.38" gradientTransform="matrix(1.6934307,0,0,1.76,-320.44634,-178.58399)" y1="195.86" x1="74.625">
   <stop stop-color="#7f7f7f" offset="0"/>
   <stop stop-color="#F00" offset="1"/>
  </linearGradient>
  <linearGradient id="linearGradient4596" y2="227.72" gradientUnits="userSpaceOnUse" x2="48.75" gradientTransform="matrix(2,0,0,2,-20.01568,-243.09037)" y1="209.06" x1="48.75">
   <stop stop-color="#00c000" offset="0"/>
   <stop stop-color="#00c000" stop-opacity="0" offset="1"/>
  </linearGradient>
  <radialGradient id="radialGradient4613" gradientUnits="userSpaceOnUse" cy="135.84" cx="49.25" gradientTransform="matrix(4.2180944,0,0,2.1785624,-129.25686,-246.80351)" r="49.25">
   <stop stop-color="#60ff60" offset="0"/>
   <stop stop-color="#308030" offset="1"/>
  </radialGradient>
  <linearGradient id="linearGradient4622" y2="195.86" gradientUnits="userSpaceOnUse" x2="144.38" gradientTransform="matrix(1.6934307,0,0,1.76,-32.44666,-178.58385)" y1="195.86" x1="74.625">
   <stop stop-color="#7f7f7f" offset="0"/>
   <stop stop-color="#0F0" offset="1"/>
  </linearGradient>
  <linearGradient id="linearGradient4658" y2="227.72" gradientUnits="userSpaceOnUse" x2="48.75" gradientTransform="matrix(2,0,0,2,267.98432,-243.09036)" y1="209.06" x1="48.75">
   <stop stop-color="#0000c0" offset="0"/>
   <stop stop-color="#0000c0" stop-opacity="0" offset="1"/>
  </linearGradient>
  <radialGradient id="radialGradient4674" gradientUnits="userSpaceOnUse" cy="135.84" cx="49.25" gradientTransform="matrix(4.2180944,0,0,2.1785624,158.74314,-246.80351)" r="49.25">
   <stop stop-color="#6060ff" offset="0"/>
   <stop stop-color="#303080" offset="1"/>
  </radialGradient>
  <linearGradient id="linearGradient4683" y2="195.86" gradientUnits="userSpaceOnUse" x2="144.38" gradientTransform="matrix(1.6934307,0,0,1.76,255.55334,-178.58385)" y1="195.86" x1="74.625">
   <stop stop-color="#7f7f7f" offset="0"/>
   <stop stop-color="#00F" offset="1"/>
  </linearGradient>
  <linearGradient id="linearGradient4711" y2="195.86" gradientUnits="userSpaceOnUse" x2="144.38" gradientTransform="matrix(1.6934307,0,0,1.76,-320.44666,150.23465)" y1="195.86" x1="74.625">
   <stop stop-color="#000" offset="0"/>
   <stop stop-color="#FFF" offset="1"/>
  </linearGradient>
  <linearGradient id="linearGradient4736" y2="195.86" gradientUnits="userSpaceOnUse" x2="144.38" gradientTransform="matrix(1.6934307,0,0,1.76,-32.44634,150.23399)" y1="195.86" x1="74.625">
   <stop stop-color="#0F0" offset="0"/>
   <stop stop-color="#FFF" offset="0.5"/>
   <stop stop-color="#F0F" offset="1"/>
  </linearGradient>
  <linearGradient id="linearGradient4761" y2="195.86" gradientUnits="userSpaceOnUse" x2="144.38" gradientTransform="matrix(1.6934307,0,0,1.76,255.55364,150.23397)" y1="195.86" x1="74.625">
   <stop stop-color="#00F" offset="0"/>
   <stop stop-color="#FFF" offset="0.5"/>
   <stop stop-color="#FF0" offset="1"/>
  </linearGradient>
  <linearGradient id="linearGradient4919" y2="227.72" xlink:href="#linearGradient6165-49-42" gradientUnits="userSpaceOnUse" x2="48.75" gradientTransform="matrix(-2,0,0,-2,176.98434,684.69981)" y1="209.06" x1="48.75"/>
  <linearGradient id="linearGradient4922" y2="227.72" xlink:href="#linearGradient6165-49-4" gradientUnits="userSpaceOnUse" x2="48.75" gradientTransform="matrix(-2,0,0,-2,221.52435,684.69981)" y1="209.06" x1="48.75"/>
  <linearGradient id="linearGradient4925" y2="227.72" xlink:href="#linearGradient6165-49" gradientUnits="userSpaceOnUse" x2="48.75" gradientTransform="matrix(-2,0,0,-2,132.44432,684.70063)" y1="209.06" x1="48.75"/>
 </defs>
 <metadata>
  <rdf:RDF>
   <cc:Work rdf:about="">
    <dc:format>image/svg+xml</dc:format>
    <dc:type rdf:resource="http://purl.org/dc/dcmitype/StillImage"/>
    <dc:title/>
   </cc:Work>
  </rdf:RDF>
 </metadata>
 <g transform="translate(316.01566,51.993818)">
  <path stroke-linejoin="round" d="m-209.52,157.63,0,54.673" stroke="url(#linearGradient4553)" stroke-linecap="butt" stroke-miterlimit="4" stroke-dasharray="none" stroke-width="5" fill="none"/>
  <path stroke-linejoin="miter" d="m-209.52,157.63-89.661-129.66,179.27,0z" stroke="#F00" stroke-linecap="butt" stroke-miterlimit="4" stroke-dasharray="none" stroke-width="5" fill="url(#radialGradient4550)"/>
  <path d="m233.35,237.17c0,25.663-20.804,46.467-46.467,46.467s-46.467-20.804-46.467-46.467,20.804-46.467,46.467-46.467,46.467,20.804,46.467,46.467z" transform="matrix(2.0659816,0,0,1.0329908,-595.60262,-233.86002)" stroke="#F00" stroke-miterlimit="4" stroke-dasharray="none" stroke-width="3.4226191" fill="url(#linearGradient3859)"/>
  <g style="letter-spacing:0px;word-spacing:0px;" font-weight="normal" transform="matrix(2,0,0,2,-308.01568,-243.09091)" font-size="40px" font-style="normal" font-family="Sans" line-height="125%" fill="#FFF">
   <path d="m43.53,135.32-3.5449,0-2.5137-4.1787c-0.50847-0.84504-0.94174-1.4001-1.2998-1.665-0.35808-0.26496-0.7448-0.39745-1.1602-0.39746h-1.1172v6.2412h-3.0615v-15.812h5.3711c3.6523,0.00002,5.4785,1.4252,5.4785,4.2754-0.000012,1.0456-0.30616,1.9533-0.91846,2.7231-0.61232,0.76986-1.4842,1.3159-2.6157,1.6382v0.043c0.7233,0.2435,1.5218,1.0563,2.3955,2.4385zm-9.6357-13.428,0,4.791,1.8262,0c0.83072,0,1.4949-0.24169,1.9927-0.7251,0.49771-0.48339,0.74657-1.0867,0.74658-1.8101-0.000009-1.5039-0.89519-2.2558-2.6855-2.2559z"/>
   <path d="m54.745,130.52-7.541,0c0.12174,1.9193,1.2103,2.8789,3.2656,2.8789,1.2532,0.00001,2.3704-0.32942,3.3516-0.98828v2.2774c-1.0456,0.60872-2.3884,0.91308-4.0283,0.91308-1.7546,0-3.1206-0.50846-4.0981-1.5254-0.97754-1.0169-1.4663-2.4385-1.4663-4.2646-0.000001-1.7904,0.52458-3.2459,1.5737-4.3667,1.0492-1.1208,2.3615-1.6811,3.937-1.6812,1.5755,0.00001,2.8037,0.48341,3.6846,1.4502,0.88085,0.9668,1.3213,2.2952,1.3213,3.9854zm-2.8252-1.9658c-0.000009-1.7904-0.73764-2.6855-2.2129-2.6856-0.61589,0.00001-1.1584,0.2435-1.6274,0.73047-0.46908,0.48699-0.76091,1.1387-0.87549,1.9551z"/>
   <path d="m67.667,135.32-2.9863,0,0-1.665-0.05371,0c-0.80209,1.2962-2.0016,1.9443-3.5986,1.9443-1.418,0-2.5531-0.50846-3.4053-1.5254-0.85222-1.0169-1.2783-2.3991-1.2783-4.1465-0.000001-1.8548,0.47624-3.3462,1.4287-4.4741,0.95247-1.1279,2.1914-1.6919,3.7168-1.6919,1.4824,0.00001,2.528,0.54786,3.1367,1.6436h0.05371v-6.7891h2.9863zm-2.9434-6.456c-0.00001-0.79491-0.2435-1.4556-0.73047-1.9819-0.48699-0.52636-1.0993-0.78954-1.8369-0.78955-0.85938,0.00001-1.5379,0.33659-2.0356,1.0098-0.49772,0.67319-0.74659,1.5863-0.74658,2.7393-0.000004,1.0814,0.2399,1.9211,0.71973,2.519,0.47981,0.59799,1.1279,0.89698,1.9443,0.89697,0.78775,0.00001,1.4323-0.31152,1.9336-0.93457,0.50129-0.62304,0.75194-1.418,0.75195-2.3848z"/>
  </g>
  <rect transform="matrix(2,0,0,2,-308.01568,-243.09091)" height="11" filter="url(#filter5299)" width="58" y="200.77" x="57.546" fill="#404040"/>
  <rect stroke-linejoin="round" stroke-dasharray="none" height="22" width="116" stroke="#000" stroke-linecap="round" stroke-miterlimit="4" y="155.13" x="-193.02" stroke-width="2" fill="url(#linearGradient4562)"/>
  <g style="letter-spacing:0px;word-spacing:0px;" font-family="Sans" font-weight="normal" font-size="80px" line-height="125%" stroke="#000" stroke-miterlimit="4" font-style="normal" stroke-dasharray="none" stroke-width="1" fill="#FFF">
   <path d="m-88.885,151.81,0-4.4648-4.5,0,0-3.082,4.5,0,0-4.4648,3,0,0,4.4648,4.5117,0,0,3.082-4.5117,0,0,4.4648z" stroke="#000" stroke-miterlimit="4" stroke-dasharray="none" stroke-width="1" fill="#FFF"/>
  </g>
  <g style="letter-spacing:0px;word-spacing:0px;" font-family="Sans" font-weight="normal" font-size="80px" line-height="125%" stroke="#000" stroke-miterlimit="4" font-style="normal" stroke-dasharray="none" stroke-width="1" fill="#FFF">
   <path d="m-178.65,145.15c-0.00001,1.0482-0.11394,1.9857-0.3418,2.8125-0.22787,0.82683-0.56153,1.5251-1.001,2.0947-0.43946,0.56966-0.97495,1.0042-1.6064,1.3037-0.63152,0.29948-1.3542,0.44922-2.168,0.44922-0.70313,0-1.3509-0.1237-1.9434-0.3711-0.59245-0.24739-1.1035-0.63639-1.5332-1.167-0.42969-0.53059-0.76497-1.2093-1.0059-2.0361-0.24088-0.82682-0.36133-1.8164-0.36133-2.9688,0-1.0482,0.11556-1.9857,0.34668-2.8125,0.23112-0.82681,0.56478-1.525,1.001-2.0947,0.43619-0.56965,0.9733-1.0042,1.6113-1.3037,0.63801-0.29946,1.3607-0.4492,2.168-0.44922,0.70311,0.00002,1.3509,0.12371,1.9434,0.3711,0.59244,0.24741,1.1019,0.63477,1.5283,1.1621,0.42642,0.52735,0.76008,1.2044,1.001,2.0312,0.24088,0.82683,0.36132,1.8197,0.36133,2.9785zm-7.5586,0.0391c-0.00001,0.13022-0.00001,0.25229,0,0.36622-0.00001,0.11393,0.007,0.22949,0.0195,0.34668l4.7852-3.457c-0.22787-0.64452-0.52897-1.1214-0.90332-1.4307-0.37435-0.30923-0.81543-0.46386-1.3232-0.46387-0.36459,0.00001-0.70313,0.0928-1.0156,0.27832-0.31251,0.18556-0.58432,0.47039-0.81543,0.8545-0.23113,0.38412-0.41342,0.86589-0.54688,1.4453-0.13346,0.57943-0.2002,1.2663-0.20019,2.0605zm5.1562,0.0391c-0.00001-0.11067-0.003-0.22298-0.01-0.33692-0.007-0.11392-0.01-0.22297-0.01-0.32715l-4.7559,3.4375c0.20833,0.63152,0.50129,1.1003,0.8789,1.4062,0.3776,0.306,0.81705,0.45899,1.3184,0.45899,0.36458,0,0.70475-0.0944,1.0205-0.2832s0.58919-0.47363,0.82031-0.8545c0.23111-0.38085,0.41178-0.86262,0.54199-1.4453,0.1302-0.58268,0.19531-1.2679,0.19532-2.0557z" stroke="#000" stroke-miterlimit="4" stroke-dasharray="none" stroke-width="1" fill="#FFF"/>
  </g>
  <g style="letter-spacing:0px;word-spacing:0px;" font-weight="normal" transform="matrix(2,0,0,2,-308.01568,-243.09091)" font-size="40px" font-style="normal" font-family="Sans" line-height="125%" fill="#000">
   <path style="text-align:center;" d="m413.27,111.7-6.4531,0,0-1.1094,2.6094,0,0-9.0391-2.6797,0.8125,0-1.1953,3.9219-1.2266,0,10.648,2.6016,0z"/>
   <path style="text-align:center;" d="m415.1,111.01c0-0.24479,0.0859-0.45182,0.25781-0.62109,0.17188-0.16927,0.3724-0.25391,0.60157-0.25391,0.22916,0,0.42968,0.0846,0.60156,0.25391,0.17187,0.16927,0.25781,0.3763,0.25781,0.62109,0,0.22917-0.0846,0.43099-0.2539,0.60547-0.16928,0.17448-0.3711,0.26172-0.60547,0.26172-0.23438,0-0.4362-0.0846-0.60547-0.25391-0.16927-0.16927-0.25391-0.37369-0.25391-0.61328z"/>
   <path style="text-align:center;" d="m431.57,101.36-3.3203,0,0,10.336-1.2734,0,0-10.336-3.3047,0,0-1.1641,7.8984,0z"/>
   <path style="text-align:center;" d="m437.43,104.76c-0.23438-0.17707-0.56511-0.26561-0.99219-0.26562-0.5625,0.00001-1.0339,0.27344-1.4141,0.82031-0.38021,0.54688-0.57032,1.2734-0.57032,2.1797v4.2031h-1.2422v-8.2109h1.2422v1.7031h0.0312c0.1875-0.57812,0.47266-1.0299,0.85547-1.3555,0.38281-0.32551,0.8112-0.48827,1.2852-0.48828,0.34374,0.00001,0.61197,0.0365,0.80469,0.10938z"/>
   <path style="text-align:center;" d="m438.7,100.53c0-0.23436,0.0781-0.43098,0.23438-0.58984,0.15625-0.15884,0.34635-0.23827,0.57031-0.23828,0.23437,0.000012,0.43099,0.08074,0.58985,0.24219,0.15885,0.16147,0.23827,0.35679,0.23828,0.58594-0.00001,0.23439-0.0794,0.4297-0.23828,0.58594-0.15886,0.15626-0.35548,0.23438-0.58985,0.23437-0.22396,0.00001-0.41406-0.0768-0.57031-0.23047-0.15625-0.15363-0.23438-0.35024-0.23438-0.58984zm0.17188,11.164,0-8.2109,1.2344,0,0,8.2109z"/>
   <path style="text-align:center;" d="m448.37,111.31c-0.64584,0.38542-1.388,0.57813-2.2266,0.57813-1.1458,0-2.0807-0.375-2.8047-1.125-0.72396-0.75-1.0859-1.7448-1.0859-2.9844,0-1.3594,0.38411-2.4466,1.1523-3.2617,0.76823-0.81509,1.7956-1.2226,3.082-1.2226,0.70833,0,1.3385,0.13282,1.8906,0.39843v1.2969c-0.61459-0.43229-1.2682-0.64843-1.9609-0.64844-0.83854,0.00001-1.5326,0.30339-2.082,0.91016-0.54948,0.60677-0.82422,1.4128-0.82422,2.418,0,0.95833,0.2513,1.7253,0.75391,2.3008,0.5026,0.57552,1.1914,0.86328,2.0664,0.86328,0.72396,0,1.4036-0.23958,2.0391-0.71875z"/>
   <path style="text-align:center;" d="m457.12,111.7-1.2344,0,0-4.7344c0-1.7448-0.65105-2.6172-1.9531-2.6172-0.65105,0.00001-1.2005,0.25261-1.6484,0.75781-0.44792,0.50522-0.67188,1.1536-0.67188,1.9453v4.6484h-1.2422v-12.148h1.2422v5.3125h0.0312c0.63021-1.0417,1.5312-1.5625,2.7031-1.5625,1.849,0,2.7734,1.1146,2.7734,3.3438z"/>
   <path style="text-align:center;" d="m463.84,104.76c-0.23438-0.17707-0.56511-0.26561-0.99219-0.26562-0.5625,0.00001-1.0339,0.27344-1.4141,0.82031-0.38021,0.54688-0.57032,1.2734-0.57032,2.1797v4.2031h-1.2422v-8.2109h1.2422v1.7031h0.0312c0.1875-0.57812,0.47266-1.0299,0.85547-1.3555,0.38281-0.32551,0.8112-0.48827,1.2852-0.48828,0.34374,0.00001,0.61197,0.0365,0.80469,0.10938z"/>
   <path style="text-align:center;" d="m464.72,107.7c0-1.3646,0.37109-2.4388,1.1133-3.2226,0.74219-0.78385,1.7565-1.1758,3.043-1.1758,1.1979,0,2.1419,0.37631,2.832,1.1289,0.6901,0.75261,1.0352,1.8008,1.0352,3.1445-0.00001,1.3021-0.37241,2.3477-1.1172,3.1367-0.7448,0.78906-1.7266,1.1836-2.9453,1.1836-1.1927,0-2.151-0.38542-2.875-1.1562-0.72396-0.77084-1.0859-1.7839-1.0859-3.0391zm1.2578-0.0547c0,0.96875,0.25391,1.7435,0.76172,2.3242,0.50781,0.58073,1.1836,0.8711,2.0273,0.8711,0.875,0,1.5456-0.27995,2.0117-0.83985,0.46614-0.55989,0.69921-1.3555,0.69922-2.3867-0.00001-1.0365-0.23438-1.8398-0.70312-2.4102-0.46876-0.57031-1.138-0.85546-2.0078-0.85547-0.84896,0.00001-1.526,0.29428-2.0312,0.88281-0.50521,0.58855-0.75781,1.3932-0.75781,2.4141z"/>
   <path style="text-align:center;" d="m486.44,111.7-1.2422,0,0-4.7109c-0.00001-0.96354-0.14454-1.6445-0.43359-2.043-0.28908-0.39843-0.76694-0.59765-1.4336-0.59766-0.5625,0.00001-1.0456,0.26433-1.4492,0.79297-0.40366,0.52865-0.60548,1.1524-0.60547,1.8711v4.6875h-1.2344v-4.8828c0-1.6458-0.63542-2.4687-1.9062-2.4688-0.57813,0.00001-1.0599,0.24871-1.4453,0.74609-0.38542,0.49741-0.57813,1.1367-0.57813,1.918v4.6875h-1.2422v-8.2109h1.2422v1.3047h0.0312c0.57292-0.99478,1.4193-1.4922,2.5391-1.4922,0.53124,0,1.0091,0.15235,1.4336,0.45703,0.42447,0.30469,0.72005,0.72266,0.88672,1.2539,0.60937-1.1406,1.5182-1.7109,2.7266-1.7109,1.8073,0,2.7109,1.1146,2.7109,3.3438z"/>
   <path style="text-align:center;" d="m489.16,104.07c0.80208-0.51561,1.724-0.77343,2.7656-0.77343,1.9062,0,2.8594,1.0104,2.8594,3.0312v5.3672h-1.2422v-1.2891h-0.0469c-0.56772,0.98958-1.4089,1.4844-2.5234,1.4844-0.80209,0-1.4388-0.21485-1.9102-0.64454-0.47135-0.42968-0.70703-1.0039-0.70703-1.7226,0-1.526,0.90104-2.4141,2.7031-2.6641l2.4766-0.35938c-0.00001-1.4271-0.56771-2.1406-1.7031-2.1406-1,0-1.8906,0.34115-2.6719,1.0234zm2.3672,3.7266c-0.64063,0.0833-1.1146,0.23958-1.4219,0.46875-0.30729,0.22917-0.46094,0.61979-0.46094,1.1719,0,0.41667,0.14714,0.75261,0.44141,1.0078,0.29427,0.25521,0.68099,0.38282,1.1602,0.38282,0.66145,0,1.2083-0.23438,1.6406-0.70313,0.43229-0.46875,0.64843-1.0573,0.64844-1.7656v-0.82813z"/>
   <path style="text-align:center;" d="m501.01,111.62c-0.3125,0.17187-0.71094,0.25781-1.1953,0.25781-1.4115,0-2.1172-0.79427-2.1172-2.3828v-4.9375h-1.4219v-1.0703h1.4219v-2.0156l1.2344-0.39844v2.4141h2.0781v1.0703h-2.0781v4.7109c-0.00001,0.57812,0.0963,0.98177,0.28906,1.2109,0.1927,0.22917,0.5052,0.34375,0.9375,0.34375,0.32812,0,0.61197-0.0911,0.85156-0.27343z"/>
   <path style="text-align:center;" d="m502.64,100.53c0-0.23436,0.0781-0.43098,0.23438-0.58984,0.15625-0.15884,0.34635-0.23827,0.57031-0.23828,0.23437,0.000012,0.43099,0.08074,0.58985,0.24219,0.15885,0.16147,0.23827,0.35679,0.23828,0.58594-0.00001,0.23439-0.0794,0.4297-0.23828,0.58594-0.15886,0.15626-0.35548,0.23438-0.58985,0.23437-0.22396,0.00001-0.41406-0.0768-0.57031-0.23047-0.15625-0.15363-0.23438-0.35024-0.23438-0.58984zm0.17188,11.164,0-8.2109,1.2344,0,0,8.2109z"/>
   <path style="text-align:center;" d="m512.31,111.31c-0.64584,0.38542-1.388,0.57813-2.2266,0.57813-1.1458,0-2.0807-0.375-2.8047-1.125-0.72396-0.75-1.0859-1.7448-1.0859-2.9844,0-1.3594,0.38411-2.4466,1.1523-3.2617,0.76823-0.81509,1.7956-1.2226,3.082-1.2226,0.70833,0,1.3385,0.13282,1.8906,0.39843v1.2969c-0.61459-0.43229-1.2682-0.64843-1.9609-0.64844-0.83854,0.00001-1.5326,0.30339-2.082,0.91016-0.54948,0.60677-0.82422,1.4128-0.82422,2.418,0,0.95833,0.2513,1.7253,0.75391,2.3008,0.5026,0.57552,1.1914,0.86328,2.0664,0.86328,0.72396,0,1.4036-0.23958,2.0391-0.71875z"/>
   <path style="text-align:center;" d="m519.57,109.7c0.35417,0.30729,0.82943,0.55468,1.4258,0.74218,0.59635,0.1875,1.1471,0.28125,1.6524,0.28125,1.6719,0,2.5078-0.60677,2.5078-1.8203-0.00001-0.34895-0.0873-0.65625-0.26172-0.92187-0.17448-0.26563-0.40235-0.49219-0.68359-0.67969-0.28126-0.1875-0.8672-0.51041-1.7578-0.96875-1.0729-0.55208-1.819-1.0612-2.2383-1.5274-0.41927-0.46613-0.6289-1.0508-0.6289-1.7539,0-0.93749,0.38151-1.6797,1.1445-2.2266,0.76302-0.54687,1.7044-0.8203,2.8242-0.82032,1.1354,0.00002,1.9479,0.13543,2.4375,0.40625v1.4609c-0.66668-0.46353-1.5339-0.6953-2.6016-0.69531-0.72917,0.00001-1.3242,0.15626-1.7852,0.46875-0.46094,0.31251-0.69141,0.7448-0.69141,1.2969,0,0.50001,0.16276,0.90756,0.48828,1.2227,0.32552,0.31511,1.0013,0.72266,2.0274,1.2227,1.1979,0.59896,2.0052,1.1641,2.4219,1.6953,0.41666,0.53125,0.62499,1.1068,0.625,1.7266-0.00001,0.99479-0.35938,1.7565-1.0781,2.2852-0.71876,0.52864-1.7136,0.79297-2.9844,0.79297-0.40104,0-0.90495-0.0638-1.5117-0.19141-0.60677-0.1276-1.0508-0.28516-1.332-0.47266z"/>
   <path style="text-align:center;" d="m532.35,111.62c-0.3125,0.17187-0.71094,0.25781-1.1953,0.25781-1.4115,0-2.1172-0.79427-2.1172-2.3828v-4.9375h-1.4219v-1.0703h1.4219v-2.0156l1.2344-0.39844v2.4141h2.0781v1.0703h-2.0781v4.7109c-0.00001,0.57812,0.0964,0.98177,0.28906,1.2109,0.1927,0.22917,0.5052,0.34375,0.9375,0.34375,0.32812,0,0.61197-0.0911,0.85156-0.27343z"/>
   <path style="text-align:center;" d="m534.34,104.07c0.80208-0.51561,1.724-0.77343,2.7656-0.77343,1.9062,0,2.8594,1.0104,2.8594,3.0312v5.3672h-1.2422v-1.2891h-0.0469c-0.56772,0.98958-1.4089,1.4844-2.5234,1.4844-0.80209,0-1.4388-0.21485-1.9102-0.64454-0.47135-0.42968-0.70703-1.0039-0.70703-1.7226,0-1.526,0.90104-2.4141,2.7031-2.6641l2.4766-0.35938c-0.00001-1.4271-0.56771-2.1406-1.7031-2.1406-1,0-1.8906,0.34115-2.6719,1.0234zm2.3672,3.7266c-0.64063,0.0833-1.1146,0.23958-1.4219,0.46875-0.30729,0.22917-0.46094,0.61979-0.46094,1.1719,0,0.41667,0.14714,0.75261,0.44141,1.0078,0.29427,0.25521,0.68099,0.38282,1.1602,0.38282,0.66145,0,1.2083-0.23438,1.6406-0.70313,0.43229-0.46875,0.64843-1.0573,0.64844-1.7656v-0.82813z"/>
   <path style="text-align:center;" d="m549.4,111.05c-0.00001,3.0104-1.4245,4.5156-4.2734,4.5156-1,0-1.888-0.19532-2.6641-0.58594v-1.2656c0.91666,0.51562,1.8021,0.77343,2.6562,0.77344,2.0364-0.00001,3.0547-1.0912,3.0547-3.2734v-0.91406h-0.0312c-0.64584,1.0625-1.5912,1.5938-2.8359,1.5938-1.0156,0-1.8359-0.36719-2.4609-1.1016-0.625-0.73437-0.9375-1.7109-0.9375-2.9297,0-1.401,0.33854-2.5117,1.0156-3.332,0.67709-0.8203,1.5885-1.2305,2.7344-1.2305,1.1146,0,1.9427,0.44792,2.4844,1.3438h0.0312v-1.1562h1.2266zm-1.2266-4.2969c0-0.66666-0.22917-1.2344-0.6875-1.7031-0.45833-0.46875-1.0156-0.70312-1.6719-0.70313-0.82292,0.00001-1.4701,0.30339-1.9414,0.91016-0.47135,0.60677-0.70703,1.444-0.70703,2.5117,0,0.92708,0.22786,1.6706,0.6836,2.2305,0.45572,0.5599,1.0482,0.83985,1.7773,0.83985,0.73958,0,1.349-0.26823,1.8281-0.80469,0.47916-0.53646,0.71875-1.2135,0.71875-2.0312z"/>
   <path style="text-align:center;" d="m558.63,107.9-5.8203,0c0.026,0.94792,0.27995,1.6732,0.76172,2.1758s1.1289,0.75391,1.9414,0.75391c0.9375,0,1.7917-0.3099,2.5625-0.92969v1.1875c-0.73438,0.53646-1.6849,0.80469-2.8516,0.80469-1.1562,0-2.0612-0.37891-2.7148-1.1367-0.65365-0.75781-0.98047-1.806-0.98047-3.1445,0-1.2448,0.35937-2.2747,1.0781-3.0898,0.71875-0.81509,1.6094-1.2226,2.6719-1.2226s1.8867,0.34766,2.4727,1.043c0.58593,0.69532,0.87889,1.6576,0.8789,2.8867zm-1.2812-1.0938c0-0.76562-0.1836-1.3646-0.55078-1.7969-0.36719-0.43228-0.87891-0.64843-1.5352-0.64843-0.61979,0-1.1536,0.22266-1.6016,0.66796-0.44792,0.44532-0.72656,1.0378-0.83594,1.7774z"/>
  </g>
  <g style="letter-spacing:0px;word-spacing:0px;" font-weight="normal" transform="matrix(2,0,0,2,-308.01568,-243.09091)" font-size="40px" font-style="normal" font-family="Sans" line-height="125%" fill="#000">
   <path style="text-align:center;" d="m413.63,246.66-6.8828,0,0-1.1172,3.3438-3.375c1.099-1.1094,1.7786-1.918,2.0391-2.4258,0.26041-0.50781,0.39062-1.043,0.39063-1.6055-0.00001-0.67708-0.19272-1.1979-0.57813-1.5625-0.38542-0.36458-0.9349-0.54687-1.6484-0.54688-1.0313,0.00001-2.0156,0.44272-2.9531,1.3281v-1.3203c0.88021-0.70832,1.9193-1.0625,3.1172-1.0625,0.99479,0.00002,1.7891,0.27476,2.3828,0.82422,0.59374,0.54949,0.89062,1.293,0.89063,2.2305-0.00001,0.70313-0.1823,1.3932-0.54688,2.0703-0.36459,0.67709-1.1224,1.5964-2.2734,2.7578l-2.6797,2.6484v0.0312h5.3984z"/>
   <path style="text-align:center;" d="m415.68,245.97c0-0.24479,0.0859-0.45182,0.25781-0.62109,0.17188-0.16927,0.3724-0.2539,0.60157-0.25391,0.22916,0.00001,0.42968,0.0846,0.60156,0.25391,0.17187,0.16927,0.25781,0.3763,0.25781,0.62109,0,0.22917-0.0846,0.43099-0.2539,0.60547-0.16928,0.17448-0.3711,0.26172-0.60547,0.26172-0.23438,0-0.4362-0.0846-0.60547-0.2539-0.16927-0.16928-0.25391-0.3737-0.25391-0.61329z"/>
   <path style="text-align:center;" d="m424.68,241.05c0-1.8437,0.4974-3.3177,1.4922-4.4219,0.99479-1.1042,2.3516-1.6562,4.0703-1.6562,1.5833,0.00002,2.8594,0.53778,3.8281,1.6133,0.96874,1.0755,1.4531,2.4674,1.4531,4.1758-0.00001,1.8385-0.48959,3.3138-1.4688,4.4258-0.97917,1.112-2.3125,1.668-4,1.668-1.6146,0-2.9141-0.54037-3.8984-1.6211-0.98437-1.0807-1.4766-2.4752-1.4766-4.1836zm1.3281-0.11719c-0.00001,1.3906,0.36718,2.5339,1.1016,3.4297,0.73437,0.89583,1.7135,1.3438,2.9375,1.3438,1.3073,0,2.3268-0.42318,3.0586-1.2695,0.73176-0.84635,1.0976-2.0091,1.0977-3.4883-0.00001-1.5052-0.35288-2.6849-1.0586-3.5391-0.70574-0.85415-1.7044-1.2812-2.9961-1.2812-1.2552,0.00001-2.2591,0.45184-3.0117,1.3555s-1.1289,2.0534-1.1289,3.4492z"/>
   <path style="text-align:center;" d="m438.88,245.46,0,4.9844-1.2422,0,0-11.992,1.2422,0,0,1.4531,0.0312,0c0.65104-1.0937,1.599-1.6406,2.8438-1.6406,1.0417,0.00001,1.8646,0.36589,2.4688,1.0976,0.60416,0.73178,0.90625,1.7175,0.90625,2.957,0,1.3854-0.33985,2.4883-1.0195,3.3086-0.67969,0.82031-1.5898,1.2305-2.7305,1.2305-1.0677,0-1.8906-0.46615-2.4688-1.3984zm0-2.125c0,0.68229,0.22787,1.2643,0.6836,1.7461,0.45572,0.48177,1.0247,0.72266,1.707,0.72266,0.80728,0,1.4414-0.3099,1.9023-0.92969,0.46093-0.61979,0.6914-1.4844,0.69141-2.5938-0.00001-0.91145-0.21746-1.6341-0.65234-2.168-0.43491-0.53384-1.0143-0.80077-1.7383-0.80078-0.75521,0.00001-1.3763,0.26824-1.8633,0.80469-0.48698,0.53646-0.73047,1.2136-0.73047,2.0312z"/>
   <path style="text-align:center;" d="m448.5,245.46,0,4.9844-1.2422,0,0-11.992,1.2422,0,0,1.4531,0.0312,0c0.65104-1.0937,1.599-1.6406,2.8438-1.6406,1.0417,0.00001,1.8646,0.36589,2.4688,1.0976,0.60416,0.73178,0.90625,1.7175,0.90625,2.957,0,1.3854-0.33985,2.4883-1.0195,3.3086-0.67969,0.82031-1.5898,1.2305-2.7305,1.2305-1.0677,0-1.8906-0.46615-2.4688-1.3984zm0-2.125c0,0.68229,0.22787,1.2643,0.6836,1.7461,0.45572,0.48177,1.0247,0.72266,1.707,0.72266,0.80728,0,1.4414-0.3099,1.9023-0.92969,0.46093-0.61979,0.6914-1.4844,0.69141-2.5938-0.00001-0.91145-0.21746-1.6341-0.65234-2.168-0.43491-0.53384-1.0143-0.80077-1.7383-0.80078-0.75521,0.00001-1.3763,0.26824-1.8633,0.80469-0.48698,0.53646-0.73047,1.2136-0.73047,2.0312z"/>
   <path style="text-align:center;" d="m456.33,242.66c0-1.3646,0.37109-2.4388,1.1133-3.2226,0.74219-0.78385,1.7565-1.1758,3.043-1.1758,1.1979,0.00001,2.1419,0.37631,2.832,1.1289,0.6901,0.75261,1.0352,1.8008,1.0352,3.1445-0.00001,1.3021-0.37241,2.3477-1.1172,3.1367-0.7448,0.78907-1.7266,1.1836-2.9453,1.1836-1.1927,0-2.151-0.38542-2.875-1.1562-0.72396-0.77083-1.0859-1.7838-1.0859-3.0391zm1.2578-0.0547c0,0.96875,0.25391,1.7435,0.76172,2.3242,0.50781,0.58073,1.1836,0.87109,2.0273,0.87109,0.875,0,1.5456-0.27995,2.0117-0.83984,0.46614-0.5599,0.69921-1.3555,0.69922-2.3867-0.00001-1.0365-0.23438-1.8398-0.70312-2.4102-0.46876-0.5703-1.138-0.85546-2.0078-0.85547-0.84896,0.00001-1.526,0.29428-2.0312,0.88281-0.50521,0.58855-0.75781,1.3932-0.75781,2.4141z"/>
   <path style="text-align:center;" d="m473.23,246.66-1.2422,0,0-4.6875c-0.00001-1.776-0.64844-2.664-1.9453-2.6641-0.66667,0.00001-1.2201,0.25131-1.6602,0.75391-0.44011,0.50261-0.66016,1.1419-0.66016,1.918v4.6797h-1.2422v-8.2109h1.2422v1.375h0.0312c0.61458-1.0417,1.513-1.5625,2.6953-1.5625,0.90103,0.00001,1.5898,0.28907,2.0664,0.86718,0.47656,0.57814,0.71484,1.4167,0.71485,2.5156z"/>
   <path style="text-align:center;" d="m482.27,242.86-5.8203,0c0.026,0.94792,0.27994,1.6732,0.76172,2.1758,0.48177,0.50261,1.1289,0.75391,1.9414,0.75391,0.9375,0,1.7917-0.3099,2.5625-0.92969v1.1875c-0.73438,0.53646-1.6849,0.80469-2.8516,0.80469-1.1562,0-2.0612-0.37891-2.7148-1.1367-0.65365-0.75781-0.98047-1.806-0.98047-3.1445,0-1.2448,0.35937-2.2747,1.0781-3.0898,0.71875-0.81509,1.6094-1.2226,2.6719-1.2226,1.0625,0.00001,1.8867,0.34766,2.4727,1.043,0.58593,0.69531,0.87889,1.6576,0.8789,2.8867zm-1.2812-1.0938c-0.00001-0.76562-0.1836-1.3646-0.55078-1.7969-0.36719-0.43228-0.87891-0.64843-1.5352-0.64843-0.61979,0-1.1536,0.22266-1.6016,0.66797-0.44792,0.44531-0.72656,1.0378-0.83594,1.7773z"/>
   <path style="text-align:center;" d="m491.04,246.66-1.2422,0,0-4.6875c-0.00001-1.776-0.64844-2.664-1.9453-2.6641-0.66667,0.00001-1.2201,0.25131-1.6602,0.75391-0.44011,0.50261-0.66016,1.1419-0.66016,1.918v4.6797h-1.2422v-8.2109h1.2422v1.375h0.0312c0.61458-1.0417,1.513-1.5625,2.6953-1.5625,0.90103,0.00001,1.5898,0.28907,2.0664,0.86718,0.47656,0.57814,0.71484,1.4167,0.71485,2.5156z"/>
   <path style="text-align:center;" d="m497.27,246.58c-0.3125,0.17187-0.71094,0.25781-1.1953,0.25781-1.4115,0-2.1172-0.79427-2.1172-2.3828v-4.9375h-1.4219v-1.0703h1.4219v-2.0156l1.2344-0.39844v2.4141h2.0781v1.0703h-2.0781v4.7109c-0.00001,0.57812,0.0963,0.98177,0.28906,1.2109,0.1927,0.22917,0.5052,0.34376,0.9375,0.34375,0.32812,0.00001,0.61197-0.0911,0.85156-0.27343z"/>
   <path style="text-align:center;" d="m506.13,242.29,0,4.3672-1.2578,0,0-11.5,3.1016,0c1.2083,0.00002,2.1497,0.29949,2.8242,0.89844,0.67447,0.59897,1.0117,1.4401,1.0117,2.5234,0,1.1198-0.39584,2.0286-1.1875,2.7266-0.79167,0.69792-1.776,1.026-2.9531,0.98438zm0-5.9609,0,4.7812,1.4453,0c0.9427,0,1.6628-0.21354,2.1602-0.64063,0.49738-0.42707,0.74608-1.0364,0.74609-1.8281-0.00001-1.5417-0.91147-2.3125-2.7344-2.3125z"/>
   <path style="text-align:center;" d="m518.04,239.72c-0.23438-0.17707-0.56511-0.26561-0.99219-0.26562-0.56251,0.00001-1.0339,0.27344-1.4141,0.82031-0.38021,0.54688-0.57032,1.2734-0.57032,2.1797v4.2031h-1.2422v-8.2109h1.2422v1.7031h0.0312c0.1875-0.57812,0.47266-1.0299,0.85547-1.3555,0.38281-0.32551,0.8112-0.48827,1.2852-0.48828,0.34374,0.00001,0.61197,0.0365,0.80469,0.10938z"/>
   <path style="text-align:center;" d="m518.92,242.66c0-1.3646,0.37109-2.4388,1.1133-3.2226,0.74219-0.78385,1.7565-1.1758,3.043-1.1758,1.1979,0.00001,2.1419,0.37631,2.832,1.1289,0.6901,0.75261,1.0352,1.8008,1.0352,3.1445-0.00001,1.3021-0.37241,2.3477-1.1172,3.1367-0.7448,0.78907-1.7266,1.1836-2.9453,1.1836-1.1927,0-2.151-0.38542-2.875-1.1562-0.72396-0.77083-1.0859-1.7838-1.0859-3.0391zm1.2578-0.0547c0,0.96875,0.25391,1.7435,0.76172,2.3242,0.50781,0.58073,1.1836,0.87109,2.0273,0.87109,0.875,0,1.5456-0.27995,2.0117-0.83984,0.46614-0.5599,0.69921-1.3555,0.69922-2.3867-0.00001-1.0365-0.23438-1.8398-0.70312-2.4102-0.46876-0.5703-1.138-0.85546-2.0078-0.85547-0.84896,0.00001-1.526,0.29428-2.0312,0.88281-0.50521,0.58855-0.75781,1.3932-0.75781,2.4141z"/>
   <path style="text-align:center;" d="m534.63,246.28c-0.64584,0.38542-1.388,0.57813-2.2266,0.57813-1.1458,0-2.0807-0.375-2.8047-1.125-0.72396-0.75-1.0859-1.7448-1.0859-2.9844,0-1.3594,0.38411-2.4466,1.1523-3.2617,0.76823-0.81509,1.7956-1.2226,3.082-1.2226,0.70833,0.00001,1.3385,0.13282,1.8906,0.39843v1.2969c-0.61459-0.43229-1.2682-0.64843-1.9609-0.64844-0.83854,0.00001-1.5326,0.30339-2.082,0.91016-0.54948,0.60677-0.82422,1.4128-0.82422,2.418,0,0.95833,0.2513,1.7253,0.75391,2.3008,0.5026,0.57552,1.1914,0.86328,2.0664,0.86328,0.72396,0,1.4036-0.23958,2.0391-0.71875z"/>
   <path style="text-align:center;" d="m543.18,242.86-5.8203,0c0.026,0.94792,0.27994,1.6732,0.76172,2.1758,0.48177,0.50261,1.1289,0.75391,1.9414,0.75391,0.9375,0,1.7917-0.3099,2.5625-0.92969v1.1875c-0.73438,0.53646-1.6849,0.80469-2.8516,0.80469-1.1562,0-2.0612-0.37891-2.7148-1.1367-0.65365-0.75781-0.98047-1.806-0.98047-3.1445,0-1.2448,0.35937-2.2747,1.0781-3.0898,0.71875-0.81509,1.6094-1.2226,2.6719-1.2226,1.0625,0.00001,1.8867,0.34766,2.4727,1.043,0.58593,0.69531,0.87889,1.6576,0.8789,2.8867zm-1.2812-1.0938c-0.00001-0.76562-0.1836-1.3646-0.55078-1.7969-0.36719-0.43228-0.87891-0.64843-1.5352-0.64843-0.61979,0-1.1536,0.22266-1.6016,0.66797-0.44792,0.44531-0.72656,1.0378-0.83594,1.7773z"/>
   <path style="text-align:center;" d="m544.68,244.99c0.71875,0.53125,1.5078,0.79688,2.3672,0.79687,1.1667,0.00001,1.75-0.39322,1.75-1.1797-0.00001-0.33854-0.12761-0.61849-0.38281-0.83985-0.25522-0.22135-0.75782-0.47265-1.5078-0.7539-0.86458-0.34375-1.4492-0.69271-1.7539-1.0469-0.30469-0.35416-0.45703-0.80208-0.45703-1.3438,0-0.69791,0.30208-1.2656,0.90625-1.7031,0.60416-0.4375,1.3411-0.65624,2.2109-0.65625,0.69792,0.00001,1.3281,0.1224,1.8906,0.36718v1.2891c-0.60938-0.39583-1.3047-0.59375-2.0859-0.59375-0.51042,0-0.91146,0.11329-1.2031,0.33984-0.29167,0.22657-0.43751,0.50912-0.4375,0.84766-0.00001,0.36459,0.10807,0.64323,0.32422,0.83593,0.21614,0.19272,0.68619,0.4323,1.4102,0.71875,0.97916,0.38022,1.6172,0.75261,1.9141,1.1172,0.29687,0.36459,0.44531,0.79948,0.44532,1.3047-0.00001,0.72917-0.30079,1.306-0.90235,1.7305-0.60156,0.42448-1.3711,0.63672-2.3086,0.63672-0.84896,0-1.5755-0.16667-2.1797-0.5z"/>
   <path style="text-align:center;" d="m551.62,244.99c0.71875,0.53125,1.5078,0.79688,2.3672,0.79687,1.1667,0.00001,1.75-0.39322,1.75-1.1797-0.00001-0.33854-0.12761-0.61849-0.38281-0.83985-0.25522-0.22135-0.75782-0.47265-1.5078-0.7539-0.86458-0.34375-1.4492-0.69271-1.7539-1.0469-0.30469-0.35416-0.45703-0.80208-0.45703-1.3438,0-0.69791,0.30208-1.2656,0.90625-1.7031,0.60416-0.4375,1.3411-0.65624,2.2109-0.65625,0.69792,0.00001,1.3281,0.1224,1.8906,0.36718v1.2891c-0.60938-0.39583-1.3047-0.59375-2.0859-0.59375-0.51042,0-0.91146,0.11329-1.2031,0.33984-0.29167,0.22657-0.43751,0.50912-0.4375,0.84766-0.00001,0.36459,0.10807,0.64323,0.32422,0.83593,0.21614,0.19272,0.68619,0.4323,1.4102,0.71875,0.97916,0.38022,1.6172,0.75261,1.9141,1.1172,0.29687,0.36459,0.44531,0.79948,0.44532,1.3047-0.00001,0.72917-0.30079,1.306-0.90235,1.7305-0.60156,0.42448-1.3711,0.63672-2.3086,0.63672-0.84896,0-1.5755-0.16667-2.1797-0.5z"/>
   <path style="text-align:center;" d="m564.34,244.67c0.35417,0.30729,0.82943,0.55469,1.4258,0.74218,0.59635,0.18751,1.1471,0.28126,1.6524,0.28125,1.6719,0.00001,2.5078-0.60677,2.5078-1.8203-0.00001-0.34895-0.0872-0.65624-0.26172-0.92187-0.17449-0.26562-0.40235-0.49219-0.68359-0.67969-0.28126-0.1875-0.8672-0.51041-1.7578-0.96875-1.0729-0.55208-1.819-1.0612-2.2383-1.5273-0.41927-0.46614-0.6289-1.0508-0.6289-1.7539,0-0.93749,0.38151-1.6797,1.1445-2.2266,0.76302-0.54687,1.7044-0.8203,2.8242-0.82032,1.1354,0.00002,1.9479,0.13543,2.4375,0.40625v1.4609c-0.66668-0.46353-1.5339-0.6953-2.6016-0.69531-0.72917,0.00001-1.3242,0.15626-1.7852,0.46875-0.46094,0.31251-0.69141,0.7448-0.69141,1.2969,0,0.50001,0.16276,0.90756,0.48828,1.2227,0.32552,0.31511,1.0013,0.72266,2.0274,1.2227,1.1979,0.59896,2.0052,1.1641,2.4219,1.6953,0.41666,0.53125,0.62499,1.1068,0.625,1.7266-0.00001,0.9948-0.35938,1.7565-1.0781,2.2852-0.71876,0.52864-1.7136,0.79297-2.9844,0.79297-0.40104,0-0.90495-0.0638-1.5117-0.19141-0.60677-0.1276-1.0508-0.28516-1.332-0.47266z"/>
   <path style="text-align:center;" d="m577.12,246.58c-0.3125,0.17187-0.71094,0.25781-1.1953,0.25781-1.4115,0-2.1172-0.79427-2.1172-2.3828v-4.9375h-1.4219v-1.0703h1.4219v-2.0156l1.2344-0.39844v2.4141h2.0781v1.0703h-2.0781v4.7109c-0.00001,0.57812,0.0964,0.98177,0.28906,1.2109,0.1927,0.22917,0.5052,0.34376,0.9375,0.34375,0.32812,0.00001,0.61197-0.0911,0.85156-0.27343z"/>
   <path style="text-align:center;" d="m579.11,239.04c0.80208-0.51561,1.724-0.77342,2.7656-0.77343,1.9062,0.00001,2.8594,1.0104,2.8594,3.0312v5.3672h-1.2422v-1.2891h-0.0469c-0.56772,0.98959-1.4089,1.4844-2.5234,1.4844-0.80209,0-1.4388-0.21485-1.9102-0.64453-0.47135-0.42969-0.70703-1.0039-0.70703-1.7227,0-1.526,0.90104-2.4141,2.7031-2.6641l2.4766-0.35938c-0.00001-1.4271-0.56771-2.1406-1.7031-2.1406-1,0-1.8906,0.34115-2.6719,1.0234zm2.3672,3.7266c-0.64063,0.0833-1.1146,0.23958-1.4219,0.46875-0.30729,0.22917-0.46094,0.61979-0.46094,1.1719,0,0.41667,0.14714,0.75261,0.44141,1.0078,0.29427,0.25521,0.68099,0.38282,1.1602,0.38282,0.66145,0,1.2083-0.23438,1.6406-0.70313,0.43229-0.46875,0.64843-1.0573,0.64844-1.7656v-0.82813z"/>
   <path style="text-align:center;" d="m594.16,246.01c-0.00001,3.0104-1.4245,4.5156-4.2734,4.5156-1,0-1.888-0.19531-2.6641-0.58594v-1.2656c0.91666,0.51562,1.8021,0.77343,2.6562,0.77344,2.0364-0.00001,3.0547-1.0912,3.0547-3.2734v-0.91406h-0.0312c-0.64584,1.0625-1.5912,1.5938-2.8359,1.5938-1.0156,0-1.8359-0.36719-2.4609-1.1016-0.625-0.73437-0.9375-1.7109-0.9375-2.9297,0-1.401,0.33854-2.5117,1.0156-3.332,0.67708-0.82031,1.5885-1.2305,2.7344-1.2305,1.1146,0.00001,1.9427,0.44792,2.4844,1.3438h0.0312v-1.1562h1.2266zm-1.2266-4.2969c0-0.66666-0.22917-1.2344-0.6875-1.7031-0.45834-0.46875-1.0156-0.70312-1.6719-0.70313-0.82292,0.00001-1.4701,0.30339-1.9414,0.91016-0.47135,0.60677-0.70703,1.444-0.70703,2.5117,0,0.92708,0.22786,1.6706,0.6836,2.2305,0.45572,0.55989,1.0482,0.83984,1.7773,0.83984,0.73958,0,1.349-0.26823,1.8281-0.80469,0.47916-0.53645,0.71875-1.2135,0.71875-2.0312z"/>
   <path style="text-align:center;" d="m603.4,242.86-5.8203,0c0.026,0.94792,0.27994,1.6732,0.76172,2.1758,0.48177,0.50261,1.1289,0.75391,1.9414,0.75391,0.9375,0,1.7917-0.3099,2.5625-0.92969v1.1875c-0.73438,0.53646-1.6849,0.80469-2.8516,0.80469-1.1562,0-2.0612-0.37891-2.7148-1.1367-0.65365-0.75781-0.98047-1.806-0.98047-3.1445,0-1.2448,0.35937-2.2747,1.0781-3.0898,0.71875-0.81509,1.6094-1.2226,2.6719-1.2226,1.0625,0.00001,1.8867,0.34766,2.4727,1.043,0.58593,0.69531,0.87889,1.6576,0.8789,2.8867zm-1.2812-1.0938c-0.00001-0.76562-0.1836-1.3646-0.55078-1.7969-0.36719-0.43228-0.87891-0.64843-1.5352-0.64843-0.61979,0-1.1536,0.22266-1.6016,0.66797-0.44792,0.44531-0.72656,1.0378-0.83594,1.7773z"/>
  </g>
  <path d="m126,306.86c0,27.338-22.162,49.5-49.5,49.5s-49.5-22.162-49.5-49.5,22.162-49.5,49.5-49.5,49.5,22.162,49.5,49.5z" transform="matrix(1.2929293,0,0,1.2929293,-308.42477,2.46815)" fill="url(#linearGradient3289)"/>
  <g style="letter-spacing:0px;word-spacing:0px;" font-weight="normal" transform="matrix(2,0,0,2,-308.01568,-243.09091)" font-size="40px" font-style="normal" font-family="Sans" line-height="125%" fill="#000">
   <path d="m28.347,324.87-4.1113,0,0-7.1875,1.3916,0,0,6.0352,2.7197,0z"/>
   <path d="m33.879,324.87-1.3574,0,0-0.79102-0.02441,0c-0.37761,0.61198-0.9017,0.91797-1.5723,0.91797-1.2012,0-1.8018-0.72265-1.8018-2.168v-3.0908h1.3623v2.9492c-0.000002,0.83008,0.32226,1.2451,0.9668,1.2451,0.31575,0,0.57291-0.11312,0.77148-0.33936,0.19856-0.22623,0.29785-0.52978,0.29785-0.91064v-2.9443h1.3574z"/>
   <path d="m43.2,324.87-1.3574,0,0-2.9297c-0.000007-0.84309-0.306-1.2646-0.91797-1.2646-0.28321,0.00001-0.52003,0.12777-0.71045,0.3833-0.19044,0.25554-0.28565,0.56234-0.28564,0.92041v2.8906h-1.3574v-2.9834c-0.000004-0.80729-0.30437-1.2109-0.91309-1.2109-0.28972,0.00001-0.52735,0.11964-0.71289,0.35889-0.18555,0.23926-0.27832,0.55909-0.27832,0.95947v2.876h-1.3623v-5.1318h1.3623v0.81055h0.01465c0.38411-0.62174,0.93261-0.93261,1.6455-0.93262,0.72265,0.00001,1.2142,0.32878,1.4746,0.98633,0.39062-0.65755,0.96191-0.98632,1.7139-0.98633,1.123,0.00001,1.6846,0.69011,1.6846,2.0703z"/>
   <path d="m44.416,318.05c-0.000001-0.20833,0.07406-0.38248,0.22217-0.52246,0.14811-0.13997,0.33935-0.20995,0.57373-0.20996,0.22786,0.00001,0.41829,0.0692,0.57129,0.20752,0.15299,0.13835,0.22949,0.31332,0.22949,0.5249-0.000002,0.2116-0.07569,0.38738-0.22705,0.52734-0.15137,0.13998-0.34261,0.20997-0.57373,0.20996-0.23112,0.00001-0.42155-0.0716-0.57129-0.21484-0.14974-0.14322-0.22461-0.31738-0.22461-0.52246zm0.10742,6.8213,0-5.1318,1.3574,0,0,5.1318z"/>
   <path d="m52.048,324.87-1.3574,0,0-2.876c-0.000004-0.8789-0.31739-1.3184-0.95215-1.3184-0.31901,0.00001-0.57862,0.11964-0.77881,0.35889-0.2002,0.23926-0.3003,0.54281-0.30029,0.91064v2.9248h-1.3623v-5.1318h1.3623v0.8252h0.01465c0.3776-0.63151,0.93261-0.94726,1.665-0.94727,1.1393,0.00001,1.709,0.70476,1.709,2.1143z"/>
   <path d="m53.513,320.06c0.23112-0.13346,0.5306-0.24169,0.89844-0.32471,0.36784-0.083,0.69824-0.1245,0.99121-0.12451,1.3867,0.00001,2.0801,0.70313,2.0801,2.1094v3.1445h-1.2988v-0.75684h-0.02441c-0.34506,0.5892-0.85775,0.88379-1.5381,0.88379-0.49479,0-0.88705-0.13916-1.1768-0.41748-0.28971-0.27832-0.43457-0.65185-0.43457-1.1206-0.000001-0.97982,0.58268-1.5478,1.748-1.7041l1.4307-0.19531c-0.000004-0.65429-0.31901-0.98144-0.95703-0.98144-0.60873,0-1.1816,0.19043-1.7188,0.57129zm1.6553,2.4609c-0.58594,0.0749-0.87891,0.33692-0.87891,0.78613-0.000001,0.20183,0.06999,0.36621,0.20996,0.49317,0.13997,0.12695,0.32877,0.19043,0.56641,0.19043,0.32552,0,0.59407-0.11475,0.80566-0.34424,0.21158-0.22949,0.31738-0.51839,0.31738-0.8667v-0.39063z"/>
   <path d="m63.571,324.87-1.3574,0,0-2.876c-0.000004-0.8789-0.31739-1.3184-0.95215-1.3184-0.31901,0.00001-0.57862,0.11964-0.77881,0.35889-0.2002,0.23926-0.3003,0.54281-0.30029,0.91064v2.9248h-1.3623v-5.1318h1.3623v0.8252h0.01465c0.3776-0.63151,0.93261-0.94726,1.665-0.94727,1.1393,0.00001,1.709,0.70476,1.709,2.1143z"/>
   <path d="m68.693,324.67c-0.36784,0.2181-0.87077,0.32715-1.5088,0.32715-0.76823,0-1.3908-0.23681-1.8677-0.71045-0.47689-0.47363-0.71533-1.0929-0.71533-1.8579,0-0.87239,0.25553-1.5592,0.7666-2.0605s1.193-0.75195,2.0459-0.75196c0.55664,0.00001,0.98307,0.0814,1.2793,0.24414v1.1963c-0.34506-0.2539-0.72592-0.38085-1.1426-0.38086-0.47526,0.00001-0.85612,0.14893-1.1426,0.44678-0.28646,0.29786-0.42969,0.70069-0.42969,1.2085-0.000002,0.5013,0.13509,0.89355,0.40527,1.1768,0.27018,0.28321,0.64127,0.42481,1.1133,0.42481,0.41341,0,0.81217-0.13021,1.1963-0.39063z"/>
   <path d="m74.265,322.69-3.4277,0c0.05534,0.8724,0.55013,1.3086,1.4844,1.3086,0.56966,0,1.0775-0.14974,1.5234-0.44922v1.0352c-0.47526,0.2767-1.0856,0.41504-1.8311,0.41504-0.79753,0-1.4185-0.23112-1.8628-0.69336-0.44434-0.46224-0.6665-1.1084-0.6665-1.9385,0-0.8138,0.23844-1.4754,0.71533-1.9849,0.47689-0.50943,1.0734-0.76415,1.7896-0.76416,0.71614,0.00001,1.2744,0.21973,1.6748,0.65918,0.40039,0.43946,0.60058,1.0433,0.60059,1.8115zm-1.2842-0.89355c-0.000004-0.8138-0.33529-1.2207-1.0059-1.2207-0.27995,0.00001-0.52653,0.11069-0.73975,0.33204s-0.34587,0.51758-0.39795,0.88867z"/>
  </g>
  <rect transform="matrix(2,0,0,2,-308.01568,-227.09091)" height="11" filter="url(#filter5299-0)" width="58" y="357.18" x="57.546" fill="#404040"/>
  <rect stroke-linejoin="round" stroke-dasharray="none" height="22" width="116" stroke="#000" stroke-linecap="round" stroke-miterlimit="4" y="483.95" x="-193.02" stroke-width="2" fill="url(#linearGradient4711)"/>
  <g style="letter-spacing:0px;word-spacing:0px;" font-family="Sans" font-weight="normal" font-size="80px" line-height="125%" stroke="#000" stroke-miterlimit="4" font-style="normal" stroke-width="1" fill="#FFF">
   <path fill="#FFF" d="m-88.886,480.63,0-4.4648-4.5,0,0-3.082,4.5,0,0-4.4648,3,0,0,4.4648,4.5117,0,0,3.082-4.5117,0,0,4.4648z" stroke="#000"/>
  </g>
  <g style="letter-spacing:0px;word-spacing:0px;" font-family="Sans" font-weight="normal" font-size="80px" line-height="125%" stroke="#000" stroke-miterlimit="4" font-style="normal" stroke-width="1" fill="#FFF">
   <path fill="#FFF" d="m-178.66,473.97c-0.00001,1.0482-0.11394,1.9857-0.3418,2.8125-0.22787,0.82682-0.56153,1.5251-1.001,2.0947-0.43947,0.56967-0.97495,1.0042-1.6064,1.3037-0.63152,0.29948-1.3542,0.44922-2.168,0.44922-0.70313,0-1.3509-0.1237-1.9434-0.37109-0.59245-0.2474-1.1035-0.63639-1.5332-1.167-0.42969-0.5306-0.76497-1.2093-1.0059-2.0361-0.24089-0.82682-0.36133-1.8164-0.36133-2.9688,0-1.0482,0.11556-1.9857,0.34668-2.8125,0.23112-0.82681,0.56478-1.525,1.001-2.0947,0.43619-0.56965,0.9733-1.0042,1.6113-1.3037,0.63801-0.29947,1.3607-0.44921,2.168-0.44922,0.70311,0.00001,1.3509,0.12371,1.9434,0.37109,0.59243,0.24741,1.1019,0.63478,1.5283,1.1621,0.42642,0.52736,0.76008,1.2044,1.001,2.0312,0.24088,0.82683,0.36132,1.8197,0.36133,2.9785zm-7.5586,0.0391c-0.00001,0.13021-0.00001,0.25228,0,0.36621-0.00001,0.11394,0.006,0.2295,0.0195,0.34668l4.7852-3.457c-0.22787-0.64452-0.52897-1.1214-0.90332-1.4307-0.37435-0.30923-0.81543-0.46385-1.3232-0.46386-0.36459,0.00001-0.70313,0.0928-1.0156,0.27832-0.31251,0.18555-0.58432,0.47038-0.81543,0.85449-0.23113,0.38412-0.41342,0.86589-0.54688,1.4453-0.13346,0.57944-0.2002,1.2663-0.20019,2.0606zm5.1562,0.0391c-0.00001-0.11067-0.003-0.22297-0.01-0.33691-0.007-0.11393-0.01-0.22298-0.01-0.32715l-4.7559,3.4375c0.20833,0.63151,0.50129,1.1003,0.8789,1.4062,0.3776,0.30599,0.81705,0.45898,1.3184,0.45898,0.36458,0,0.70475-0.0944,1.0205-0.2832s0.58918-0.47363,0.82031-0.85449c0.23111-0.38086,0.41178-0.86263,0.54199-1.4453,0.1302-0.58268,0.19531-1.2679,0.19532-2.0557z" stroke="#000"/>
  </g>
  <path d="m126,306.86c0,27.338-22.162,49.5-49.5,49.5s-49.5-22.162-49.5-49.5,22.162-49.5,49.5-49.5,49.5,22.162,49.5,49.5z" transform="matrix(1.2929293,0,0,1.2929293,-20.42478,2.46835)" fill="url(#linearGradient5684)"/>
  <g style="letter-spacing:0px;word-spacing:0px;" font-weight="normal" transform="matrix(2,0,0,2,-308.01568,-243.09091)" font-size="40px" font-style="normal" font-family="Sans" line-height="125%" fill="#000">
   <path d="m193.98,322.76c-0.52084,0.26367-1.1979,0.3955-2.0312,0.3955-1.0645,0-1.9132-0.3247-2.5464-0.97412-0.63314-0.64941-0.94971-1.5145-0.94971-2.5952,0-1.1328,0.35319-2.0597,1.0596-2.7808,0.70638-0.72103,1.613-1.0815,2.7197-1.0816,0.69661,0.00001,1.2793,0.0928,1.748,0.27832v1.3574c-0.48829-0.28319-1.0417-0.42479-1.6602-0.4248-0.72591,0.00001-1.3078,0.23601-1.7456,0.70801-0.43783,0.47201-0.65674,1.0872-0.65674,1.8457,0,0.74545,0.20833,1.3412,0.625,1.7871,0.41666,0.44597,0.97167,0.66895,1.665,0.66895,0.65429,0,1.2451-0.15625,1.7725-0.46875z"/>
   <path style="baseline-shift:sub;" d="m198.05,324.68c-0.00001,0.61784-0.17034,1.0913-0.511,1.4203-0.34066,0.32902-0.83473,0.49353-1.4822,0.49353-0.44011,0-0.7977-0.0688-1.0728-0.2063v-0.76808c0.34913,0.20102,0.69931,0.30152,1.0506,0.30152,0.3597,0,0.63847-0.0957,0.83631-0.28723,0.19784-0.19149,0.29676-0.46392,0.29676-0.81728v-0.29517h-0.0127c-0.24121,0.39145-0.59774,0.58717-1.0696,0.58717-0.41472,0-0.74904-0.14917-1.003-0.44752-0.25391-0.29834-0.38086-0.70036-0.38086-1.2061,0-0.56071,0.13912-1.0082,0.41736-1.3426,0.27825-0.33431,0.64483-0.50146,1.0998-0.50147,0.4126,0.00001,0.7247,0.16293,0.93629,0.48878h0.0127v-0.40943h0.88234zm-0.87282-1.5584c0-0.2264-0.0709-0.42001-0.21265-0.58082-0.14177-0.16081-0.32162-0.24121-0.53956-0.24122-0.25391,0.00001-0.45545,0.0984-0.60462,0.29517-0.14917,0.19679-0.22376,0.47185-0.22376,0.82521,0,0.30469,0.0709,0.54697,0.21265,0.72682,0.14177,0.17985,0.33008,0.26978,0.56495,0.26978,0.2391,0,0.4327-0.0899,0.58082-0.26978,0.14811-0.17985,0.22217-0.41155,0.22217-0.69508z"/>
  </g>
  <rect transform="matrix(2,0,0,2,-308.01568,-227.09091)" height="11" filter="url(#filter5299-0-5)" width="58" y="357.18" x="201.55" fill="#404040"/>
  <rect stroke-linejoin="round" stroke-dasharray="none" height="22" width="116" stroke="#000" stroke-linecap="round" stroke-miterlimit="4" y="483.95" x="94.984" stroke-width="2" fill="url(#linearGradient4736)"/>
  <g style="letter-spacing:0px;word-spacing:0px;" font-family="Sans" font-weight="normal" font-size="80px" line-height="125%" stroke="#000" stroke-miterlimit="4" font-style="normal" stroke-width="1" fill="#FFF">
   <path fill="#FFF" stroke="#000" d="m199.11,480.63,0-4.4648-4.5,0,0-3.082,4.5,0,0-4.4648,3,0,0,4.4648,4.5117,0,0,3.082-4.5117,0,0,4.4648z"/>
  </g>
  <g style="letter-spacing:0px;word-spacing:0px;" font-family="Sans" font-weight="normal" font-size="80px" line-height="125%" stroke="#000" stroke-miterlimit="4" font-style="normal" stroke-width="1" fill="#FFF">
   <path fill="#FFF" stroke="#000" d="m157.96,473.97c-0.00001,1.0482-0.11394,1.9857-0.34179,2.8125-0.22788,0.82683-0.56154,1.5251-1.001,2.0947-0.43946,0.56966-0.97494,1.0042-1.6064,1.3037-0.63151,0.29948-1.3542,0.44922-2.168,0.44922-0.70313,0-1.3509-0.1237-1.9434-0.37109-0.59245-0.2474-1.1035-0.6364-1.5332-1.167-0.42969-0.53059-0.76497-1.2093-1.0059-2.0361-0.24088-0.82682-0.36133-1.8164-0.36132-2.9688-0.00001-1.0482,0.11555-1.9857,0.34667-2.8125,0.23112-0.82681,0.56478-1.525,1.001-2.0947,0.4362-0.56965,0.97331-1.0042,1.6113-1.3037,0.63802-0.29946,1.3607-0.4492,2.168-0.44921,0.70312,0.00001,1.3509,0.12371,1.9434,0.37109,0.59244,0.24741,1.1019,0.63478,1.5283,1.1621,0.42642,0.52735,0.76008,1.2044,1.001,2.0312,0.24088,0.82683,0.36132,1.8197,0.36133,2.9785zm-7.5586,0.0391v0.36621c0,0.11394,0.007,0.2295,0.0195,0.34668l4.7852-3.457c-0.22788-0.64452-0.52898-1.1214-0.90332-1.4307-0.37436-0.30923-0.81544-0.46385-1.3232-0.46386-0.36458,0.00001-0.70313,0.0928-1.0156,0.27832-0.31251,0.18555-0.58431,0.47038-0.81543,0.85449-0.23112,0.38412-0.41342,0.86589-0.54688,1.4453-0.13346,0.57944-0.20019,1.2663-0.20019,2.0606zm5.1562,0.0391c-0.00001-0.11067-0.003-0.22298-0.01-0.33691s-0.01-0.22298-0.01-0.32715l-4.7559,3.4375c0.20833,0.63151,0.5013,1.1003,0.8789,1.4062,0.3776,0.30599,0.81706,0.45898,1.3184,0.45898,0.36458,0,0.70475-0.0944,1.0205-0.2832s0.58919-0.47363,0.82031-0.85449,0.41178-0.86263,0.542-1.4453c0.1302-0.58267,0.1953-1.2679,0.19531-2.0557z"/>
  </g>
  <g style="letter-spacing:0px;word-spacing:0px;" font-family="Sans" font-weight="normal" font-size="80px" line-height="125%" stroke="#000" stroke-miterlimit="4" font-style="normal" stroke-width="1" fill="#FFF">
   <path fill="#FFF" stroke="#000" d="m99.384,476.06,0-2.9668,8.5039,0,0,2.9668z"/>
  </g>
  <path d="m126,306.86c0,27.338-22.162,49.5-49.5,49.5s-49.5-22.162-49.5-49.5,22.162-49.5,49.5-49.5,49.5,22.162,49.5,49.5z" transform="matrix(1.2929293,0,0,1.2929293,267.57522,2.46835)" fill="url(#linearGradient5532-5)"/>
  <g style="letter-spacing:0px;word-spacing:0px;" font-weight="normal" transform="matrix(2,0,0,2,-308.01568,-243.09091)" font-size="40px" font-style="normal" font-family="Sans" line-height="125%" fill="#000">
   <path d="m337.88,323.5c-0.52084,0.26367-1.1979,0.39551-2.0312,0.39551-1.0645,0-1.9132-0.32471-2.5464-0.97412-0.63314-0.64941-0.94971-1.5145-0.94971-2.5952,0-1.1328,0.35319-2.0597,1.0596-2.7808,0.70637-0.72102,1.613-1.0815,2.7197-1.0815,0.69661,0.00001,1.2793,0.0928,1.748,0.27832v1.3574c-0.48829-0.2832-1.0417-0.4248-1.6602-0.4248-0.72591,0-1.3078,0.236-1.7456,0.708-0.43783,0.47201-0.65674,1.0872-0.65674,1.8457,0,0.74544,0.20833,1.3411,0.625,1.7871,0.41666,0.44596,0.97167,0.66894,1.665,0.66894,0.65429,0,1.2451-0.15625,1.7725-0.46875z"/>
   <path style="baseline-shift:sub;" d="m339.68,325.35,0,0.41578-0.88551,0,0-4.9354,0.88551,0,0,2.1265,0.01,0c0.25814-0.40414,0.62631-0.60621,1.1045-0.60621,0.42318,0,0.75432,0.14812,0.99342,0.44434,0.2391,0.29623,0.35864,0.69931,0.35865,1.2092-0.00001,0.55648-0.13701,1.0029-0.41102,1.3394-0.27401,0.33643-0.63848,0.50465-1.0934,0.50465-0.41683,0-0.73422-0.1661-0.95216-0.4983zm-0.0127-1.0093c0,0.23063,0.0709,0.42424,0.21265,0.58082,0.14177,0.15657,0.3195,0.23486,0.53321,0.23486,0.25814,0,0.46021-0.1005,0.60621-0.30152,0.146-0.20101,0.219-0.48348,0.219-0.84742,0-0.30257-0.0666-0.53956-0.19995-0.71095-0.13331-0.17138-0.32163-0.25708-0.56495-0.25708-0.23487,0-0.42795,0.0867-0.57923,0.26026-0.15129,0.1735-0.22694,0.39462-0.22694,0.66334z"/>
  </g>
  <rect transform="matrix(2,0,0,2,-308.01568,-227.09091)" height="11" filter="url(#filter5299-0-5-2)" width="58" y="357.18" x="345.55" fill="#404040"/>
  <rect stroke-linejoin="round" stroke-dasharray="none" height="22" width="116" stroke="#000" stroke-linecap="round" stroke-miterlimit="4" y="483.95" x="382.98" stroke-width="2" fill="url(#linearGradient4761)"/>
  <g style="letter-spacing:0px;word-spacing:0px;" font-family="Sans" font-weight="normal" font-size="80px" line-height="125%" stroke="#000" stroke-miterlimit="4" font-style="normal" stroke-width="1" fill="#FFF">
   <path fill="#FFF" d="m487.11,480.63,0-4.4648-4.5,0,0-3.082,4.5,0,0-4.4648,3,0,0,4.4648,4.5117,0,0,3.082-4.5117,0,0,4.4648z" stroke="#000"/>
  </g>
  <g style="letter-spacing:0px;word-spacing:0px;" font-family="Sans" font-weight="normal" font-size="80px" line-height="125%" stroke="#000" stroke-miterlimit="4" font-style="normal" stroke-width="1" fill="#FFF">
   <path fill="#FFF" d="m445.96,473.97c-0.00001,1.0482-0.11394,1.9857-0.34179,2.8125-0.22788,0.82683-0.56154,1.5251-1.001,2.0947-0.43946,0.56966-0.97494,1.0042-1.6064,1.3037-0.63151,0.29948-1.3542,0.44922-2.168,0.44922-0.70313,0-1.3509-0.1237-1.9434-0.37109-0.59245-0.2474-1.1035-0.6364-1.5332-1.167-0.42969-0.53059-0.76497-1.2093-1.0059-2.0361-0.24088-0.82682-0.36133-1.8164-0.36132-2.9688-0.00001-1.0482,0.11555-1.9857,0.34667-2.8125,0.23112-0.82681,0.56478-1.525,1.001-2.0947,0.4362-0.56965,0.97331-1.0042,1.6113-1.3037,0.63802-0.29946,1.3607-0.4492,2.168-0.44921,0.70312,0.00001,1.3509,0.12371,1.9434,0.37109,0.59244,0.24741,1.1019,0.63478,1.5283,1.1621,0.42642,0.52735,0.76008,1.2044,1.001,2.0312,0.24088,0.82683,0.36132,1.8197,0.36133,2.9785zm-7.5586,0.0391v0.36621c0,0.11394,0.007,0.2295,0.0195,0.34668l4.7852-3.457c-0.22788-0.64452-0.52898-1.1214-0.90332-1.4307-0.37436-0.30923-0.81544-0.46385-1.3232-0.46386-0.36458,0.00001-0.70313,0.0928-1.0156,0.27832-0.31251,0.18555-0.58431,0.47038-0.81543,0.85449-0.23112,0.38412-0.41342,0.86589-0.54688,1.4453-0.13346,0.57944-0.20019,1.2663-0.20019,2.0606zm5.1562,0.0391c-0.00001-0.11067-0.003-0.22298-0.01-0.33691s-0.01-0.22298-0.01-0.32715l-4.7559,3.4375c0.20833,0.63151,0.5013,1.1003,0.8789,1.4062,0.3776,0.30599,0.81706,0.45898,1.3184,0.45898,0.36458,0,0.70475-0.0944,1.0205-0.2832s0.58919-0.47363,0.82031-0.85449,0.41178-0.86263,0.542-1.4453c0.1302-0.58267,0.1953-1.2679,0.19531-2.0557z" stroke="#000"/>
  </g>
  <g style="letter-spacing:0px;word-spacing:0px;" font-family="Sans" font-weight="normal" font-size="80px" line-height="125%" stroke="#000" stroke-miterlimit="4" font-style="normal" stroke-width="1" fill="#FFF">
   <path fill="#FFF" d="m387.38,476.06,0-2.9668,8.5039,0,0,2.9668z" stroke="#000"/>
  </g>
  <path d="m-255.6,264.01,0-30.871" stroke-miterlimit="4" stroke-width="0" fill="none"/>
  <g transform="matrix(2,0,0,2,-308.01568,-243.09091)">
   <g style="letter-spacing:0px;word-spacing:0px;" font-family="Sans" font-size="40px" line-height="125%" font-style="normal" font-weight="normal" fill="#000">
    <path d="m31.879,281.72-2.5781,0-1.8281-3.0391c-0.3698-0.61458-0.6849-1.0182-0.94531-1.2109-0.26042-0.19271-0.54167-0.28906-0.84375-0.28907h-0.8125v4.5391h-2.2266v-11.5h3.9062c2.6562,0.00001,3.9844,1.0365,3.9844,3.1094-0.000009,0.76043-0.22266,1.4206-0.66797,1.9805-0.44532,0.5599-1.0794,0.95704-1.9023,1.1914v0.0312c0.52603,0.17708,1.1068,0.76823,1.7422,1.7734zm-7.0078-9.7656,0,3.4844,1.3281,0c0.60416,0,1.0872-0.17578,1.4492-0.52735,0.36197-0.35155,0.54296-0.79035,0.54297-1.3164-0.000007-1.0937-0.65105-1.6406-1.9531-1.6406z"/>
    <path d="m41.363,277.73-3.1328,0,0,3.1328-1.4531,0,0-3.1328-3.1406,0,0-1.4609,3.1406,0,0-3.1406,1.4531,0,0,3.1406,3.1328,0z"/>
    <path d="m53.809,280.94c-1.1302,0.65625-2.4948,0.98437-4.0938,0.98437-1.7813,0-3.1979-0.51693-4.25-1.5508-1.0521-1.0338-1.5781-2.4414-1.5781-4.2227-0.000001-1.7917,0.57292-3.2591,1.7188-4.4023,1.1458-1.1432,2.6615-1.7148,4.5469-1.7148,1.2292,0.00001,2.2969,0.17709,3.2031,0.53125v2.1641c-0.88543-0.53645-1.974-0.80468-3.2656-0.80469-1.1406,0.00001-2.069,0.37631-2.7852,1.1289-0.71615,0.75261-1.0742,1.7461-1.0742,2.9805-0.000003,1.2604,0.32291,2.2409,0.96875,2.9414,0.64583,0.70053,1.5312,1.0508,2.6562,1.0508,0.68749,0.00001,1.2604-0.11197,1.7188-0.33593v-2.5391h-2.3594v-1.8125h4.5938z"/>
    <path d="m64.426,277.73-3.1328,0,0,3.1328-1.4531,0,0-3.1328-3.1406,0,0-1.4609,3.1406,0,0-3.1406,1.4531,0,0,3.1406,3.1328,0z"/>
    <path d="m67.676,281.72,0-11.5,3.9141,0c1.1823,0.00001,2.1068,0.23568,2.7734,0.70703,0.66666,0.47136,0.99999,1.1289,1,1.9726-0.000009,0.6146-0.19532,1.1576-0.58594,1.6289-0.39063,0.47136-0.91667,0.8086-1.5781,1.0117v0.0234c0.81249,0.10417,1.4583,0.40625,1.9375,0.90625,0.47916,0.5,0.71874,1.1198,0.71875,1.8594-0.00001,1.0312-0.3698,1.8542-1.1094,2.4688-0.73959,0.61459-1.7292,0.92188-2.9688,0.92188zm2.2266-9.7891,0,3.0156,1.2109,0c0.59895,0.00001,1.0677-0.14192,1.4062-0.42578,0.33854-0.28385,0.50781-0.68359,0.50781-1.1992-0.000007-0.92708-0.66146-1.3906-1.9844-1.3906zm0,4.7344,0,3.3438,1.5312,0c0.65624,0,1.1667-0.15104,1.5312-0.45313,0.36458-0.30208,0.54687-0.72135,0.54688-1.2578-0.000007-1.0885-0.71876-1.6328-2.1562-1.6328z"/>
   </g>
   <path stroke-linejoin="round" d="m26.98,263.53,0-27.337" stroke="url(#linearGradient6367)" stroke-linecap="butt" stroke-miterlimit="4" stroke-dasharray="none" stroke-width="2.5" fill="none"/>
   <path stroke-linejoin="round" d="m49.25,263.53,0-27.337" stroke="url(#linearGradient6401)" stroke-linecap="butt" stroke-miterlimit="4" stroke-dasharray="none" stroke-width="2.5" fill="none"/>
   <path stroke-linejoin="round" d="m71.52,263.53,0-27.337" stroke="url(#linearGradient6435)" stroke-linecap="butt" stroke-miterlimit="4" stroke-dasharray="none" stroke-width="2.5" fill="none"/>
  </g>
  <path stroke-linejoin="miter" d="m78.484,157.63-89.661-129.66,179.27,0z" stroke="#0F0" stroke-linecap="butt" stroke-miterlimit="4" stroke-dasharray="none" stroke-width="5" fill="url(#radialGradient4613)"/>
  <path d="m233.35,237.17c0,25.663-20.804,46.467-46.467,46.467s-46.467-20.804-46.467-46.467,20.804-46.467,46.467-46.467,46.467,20.804,46.467,46.467z" transform="matrix(2.0659816,0,0,1.0329908,-307.60264,-233.86)" stroke="#0F0" stroke-miterlimit="4" stroke-dasharray="none" stroke-width="3.4226191" fill="url(#linearGradient3859-1)"/>
  <g style="letter-spacing:0px;word-spacing:0px;" font-weight="normal" transform="matrix(2,0,0,2,-308.01568,-243.09091)" font-size="40px" font-style="normal" font-family="Sans" line-height="125%" fill="#FFF">
   <path d="m176.92,133.93c-1.554,0.90235-3.4304,1.3535-5.6289,1.3535-2.4492,0-4.3971-0.71078-5.8438-2.1323-1.4466-1.4215-2.1699-3.3569-2.1699-5.8062-0.00001-2.4635,0.78775-4.4813,2.3633-6.0532,1.5755-1.5719,3.6595-2.3579,6.252-2.3579,1.6901,0.00001,3.1582,0.2435,4.4043,0.73047v2.9756c-1.2175-0.73761-2.7142-1.1064-4.4902-1.1064-1.5684,0.00001-2.8449,0.51743-3.8296,1.5522s-1.477,2.4009-1.477,4.0982c0,1.7331,0.44401,3.0812,1.332,4.0444,0.88802,0.96322,2.1055,1.4448,3.6524,1.4448,0.9453,0,1.7331-0.15397,2.3633-0.46192v-3.4912h-3.2441v-2.4922h6.3164z"/>
   <path d="m186.79,126.48c-0.39388-0.23632-0.87728-0.35448-1.4502-0.35449-0.75196,0.00001-1.3535,0.30616-1.8047,0.91846-0.45118,0.61231-0.67676,1.4341-0.67676,2.4653v5.5h-2.9971v-11.29h2.9971v2.1699h0.0322c0.55143-1.5755,1.5433-2.3633,2.9756-2.3633,0.40819,0.00001,0.71613,0.0501,0.92382,0.15039z"/>
   <path d="m198.37,130.21-7.541,0c0.12174,1.9193,1.2103,2.8789,3.2656,2.8789,1.2532,0,2.3704-0.32943,3.3516-0.98828v2.2773c-1.0456,0.60873-2.3884,0.91309-4.0283,0.91309-1.7546,0-3.1206-0.50847-4.0981-1.5254-0.97754-1.0169-1.4663-2.4385-1.4663-4.2646,0-1.7904,0.52458-3.2459,1.5737-4.3667,1.0492-1.1208,2.3615-1.6811,3.937-1.6812,1.5755,0.00001,2.8037,0.48341,3.6846,1.4502,0.88085,0.96681,1.3213,2.2953,1.3213,3.9854zm-2.8252-1.9658c-0.00001-1.7904-0.73764-2.6855-2.2129-2.6855-0.61589,0-1.1584,0.24349-1.6274,0.73046-0.46907,0.48699-0.7609,1.1387-0.87548,1.9551z"/>
   <path d="m210.49,130.21-7.541,0c0.12175,1.9193,1.2103,2.8789,3.2656,2.8789,1.2532,0,2.3704-0.32943,3.3516-0.98828v2.2773c-1.0456,0.60873-2.3884,0.91309-4.0283,0.91309-1.7546,0-3.1206-0.50847-4.0981-1.5254-0.97754-1.0169-1.4663-2.4385-1.4663-4.2646,0-1.7904,0.52457-3.2459,1.5737-4.3667,1.0492-1.1208,2.3615-1.6811,3.937-1.6812,1.5755,0.00001,2.8037,0.48341,3.6846,1.4502,0.88085,0.96681,1.3213,2.2953,1.3213,3.9854zm-2.8252-1.9658c0-1.7904-0.73763-2.6855-2.2129-2.6855-0.61589,0-1.1584,0.24349-1.6274,0.73046-0.46908,0.48699-0.76091,1.1387-0.87549,1.9551z"/>
   <path d="m223.23,135.01-2.9863,0,0-6.3272c-0.00001-1.9336-0.69825-2.9004-2.0947-2.9004-0.70183,0.00001-1.273,0.26319-1.7134,0.78955-0.44043,0.52638-0.66065,1.1942-0.66064,2.0034v6.4346h-2.9971v-11.29h2.9971v1.8154h0.0322c0.83073-1.3893,2.0518-2.084,3.6631-2.084,2.5065,0.00001,3.7598,1.5505,3.7598,4.6514z"/>
  </g>
  <rect transform="matrix(2,0,0,2,-308.01568,-243.09091)" height="11" filter="url(#filter5299-8)" width="58" y="200.77" x="201.55" fill="#404040"/>
  <rect stroke-linejoin="round" stroke-dasharray="none" height="22" width="116" stroke="#000" stroke-linecap="round" stroke-miterlimit="4" y="155.13" x="94.984" stroke-width="2" fill="url(#linearGradient4622)"/>
  <g style="letter-spacing:0px;word-spacing:0px;" font-family="Sans" font-weight="normal" font-size="80px" line-height="125%" stroke="#000" stroke-miterlimit="4" font-style="normal" stroke-width="1" fill="#FFF">
   <path fill="#FFF" d="m199.11,151.81,0-4.4648-4.5,0,0-3.082,4.5,0,0-4.4648,3,0,0,4.4648,4.5117,0,0,3.082-4.5117,0,0,4.4648z" stroke="#000"/>
  </g>
  <g style="letter-spacing:0px;word-spacing:0px;" font-family="Sans" font-weight="normal" font-size="80px" line-height="125%" stroke="#000" stroke-miterlimit="4" font-style="normal" stroke-width="1" fill="#FFF">
   <path fill="#FFF" d="m109.34,145.15c-0.00001,1.0482-0.11394,1.9857-0.3418,2.8125-0.22787,0.82683-0.56153,1.5251-1.001,2.0947-0.43946,0.56966-0.97494,1.0042-1.6064,1.3037-0.63152,0.29948-1.3542,0.44922-2.168,0.44922-0.70313,0-1.3509-0.1237-1.9434-0.37109-0.59245-0.2474-1.1035-0.6364-1.5332-1.167-0.42969-0.53059-0.76498-1.2093-1.0059-2.0361-0.24089-0.82682-0.36133-1.8164-0.36133-2.9688,0-1.0482,0.11556-1.9857,0.34668-2.8125,0.23112-0.82681,0.56478-1.525,1.001-2.0947,0.43619-0.56964,0.9733-1.0042,1.6113-1.3037,0.63802-0.29946,1.3607-0.4492,2.168-0.44921,0.70312,0.00001,1.3509,0.12371,1.9434,0.37109,0.59244,0.24741,1.1019,0.63478,1.5283,1.1621,0.42643,0.52735,0.76008,1.2044,1.001,2.0312,0.24087,0.82683,0.36132,1.8197,0.36133,2.9785zm-7.5586,0.0391v0.36621c0,0.11394,0.007,0.2295,0.0195,0.34668l4.7852-3.457c-0.22787-0.64453-0.52898-1.1214-0.90332-1.4307-0.37435-0.30923-0.81543-0.46385-1.3232-0.46387-0.36459,0.00002-0.70313,0.0928-1.0156,0.27832-0.3125,0.18556-0.58431,0.47039-0.81543,0.8545-0.23112,0.38412-0.41341,0.86589-0.54687,1.4453-0.13347,0.57943-0.2002,1.2663-0.2002,2.0606zm5.1562,0.0391c0-0.11067-0.003-0.22298-0.01-0.33692-0.007-0.11392-0.01-0.22297-0.01-0.32714l-4.7559,3.4375c0.20833,0.63151,0.5013,1.1003,0.87891,1.4062,0.3776,0.30599,0.81705,0.45898,1.3184,0.45898,0.36458,0,0.70475-0.0944,1.0205-0.2832s0.58918-0.47363,0.82031-0.85449c0.23111-0.38086,0.41178-0.86263,0.54199-1.4453,0.1302-0.58267,0.19531-1.2679,0.19531-2.0557z" stroke="#000"/>
  </g>
  <path stroke-linejoin="round" d="m78.484,157.63,0,54.673" stroke="url(#linearGradient4596)" stroke-linecap="butt" stroke-miterlimit="4" stroke-dasharray="none" stroke-width="5" fill="none"/>
  <path stroke-linejoin="miter" d="m366.48,157.63-89.661-129.66,179.27,0z" stroke="#00F" stroke-linecap="butt" stroke-miterlimit="4" stroke-dasharray="none" stroke-width="5" fill="url(#radialGradient4674)"/>
  <path d="m233.35,237.17c0,25.663-20.804,46.467-46.467,46.467s-46.467-20.804-46.467-46.467,20.804-46.467,46.467-46.467,46.467,20.804,46.467,46.467z" transform="matrix(2.0659816,0,0,1.0329908,-19.60264,-233.86)" stroke="#00F" stroke-miterlimit="4" stroke-dasharray="none" stroke-width="3.4226191" fill="url(#linearGradient3859-1-4)"/>
  <g style="letter-spacing:0px;word-spacing:0px;" font-weight="normal" transform="matrix(2,0,0,2,-308.01568,-243.09091)" font-size="40px" font-style="normal" font-family="Sans" line-height="125%" fill="#FFF">
   <path d="m315.75,135.32,0-15.812,5.3818,0c1.6256,0.00002,2.8968,0.32407,3.8135,0.97217,0.91665,0.64812,1.375,1.5523,1.375,2.7124-0.00002,0.84506-0.26857,1.5916-0.80567,2.2398-0.53712,0.64812-1.2604,1.1118-2.1699,1.3911v0.0322c1.1172,0.14323,2.0052,0.5586,2.6641,1.2461,0.65884,0.68751,0.98827,1.5397,0.98828,2.5566-0.00001,1.418-0.50847,2.5495-1.5254,3.3945-1.0169,0.84505-2.3776,1.2676-4.082,1.2676zm3.0615-13.46,0,4.1465,1.665,0c0.82356,0.00001,1.4681-0.19514,1.9336-0.58545,0.46548-0.39028,0.69823-0.93993,0.69824-1.6489-0.00001-1.2747-0.90951-1.9121-2.7285-1.9121zm0,6.5098,0,4.5977,2.1055,0c0.90234,0,1.6042-0.20768,2.1055-0.62305,0.5013-0.41536,0.75195-0.99185,0.75196-1.7295-0.00001-1.4967-0.98829-2.2451-2.9648-2.2451z"/>
   <path d="m329.41,135.32,0-16.704,2.9863,0,0,16.704z"/>
   <path d="m345.78,135.32-2.9863,0,0-1.7402-0.0537,0c-0.83074,1.3464-1.9837,2.0195-3.459,2.0195-2.6426,0-3.9639-1.5898-3.9639-4.7695v-6.7998h2.9971v6.4883c-0.00001,1.8262,0.70898,2.7393,2.127,2.7393,0.69465,0,1.2604-0.24886,1.6973-0.74658,0.43684-0.49772,0.65526-1.1655,0.65527-2.0034v-6.4775h2.9863z"/>
   <path d="m358.75,130.52-7.541,0c0.12174,1.9193,1.2103,2.8789,3.2656,2.8789,1.2532,0,2.3704-0.32943,3.3516-0.98828v2.2773c-1.0456,0.60873-2.3884,0.91309-4.0283,0.91309-1.7546,0-3.1206-0.50847-4.0982-1.5254-0.97754-1.0169-1.4663-2.4385-1.4663-4.2646-0.00001-1.7904,0.52457-3.2459,1.5737-4.3667,1.0492-1.1208,2.3615-1.6811,3.937-1.6812,1.5755,0.00001,2.8037,0.48341,3.6846,1.4502,0.88085,0.96681,1.3213,2.2953,1.3213,3.9854zm-2.8252-1.9658c-0.00001-1.7904-0.73764-2.6855-2.2129-2.6855-0.61589,0-1.1584,0.24349-1.6274,0.73046-0.46908,0.48699-0.76091,1.1387-0.87549,1.9551z"/>
  </g>
  <rect transform="matrix(2,0,0,2,-308.01568,-243.09091)" height="11" filter="url(#filter5299-5)" width="58" y="200.77" x="345.55" fill="#404040"/>
  <rect stroke-linejoin="round" stroke-dasharray="none" height="22" width="116" stroke="#000" stroke-linecap="round" stroke-miterlimit="4" y="155.13" x="382.98" stroke-width="2" fill="url(#linearGradient4683)"/>
  <g style="letter-spacing:0px;word-spacing:0px;" font-family="Sans" font-weight="normal" font-size="80px" line-height="125%" stroke="#000" stroke-miterlimit="4" font-style="normal" stroke-width="1" fill="#FFF">
   <path fill="#FFF" d="m487.11,151.81,0-4.4648-4.5,0,0-3.082,4.5,0,0-4.4648,3,0,0,4.4648,4.5117,0,0,3.082-4.5117,0,0,4.4648z" stroke="#000"/>
  </g>
  <g style="letter-spacing:0px;word-spacing:0px;" font-family="Sans" font-weight="normal" font-size="80px" line-height="125%" stroke="#000" stroke-miterlimit="4" font-style="normal" stroke-width="1" fill="#FFF">
   <path fill="#FFF" d="m397.34,145.15c-0.00001,1.0482-0.11394,1.9857-0.3418,2.8125-0.22787,0.82683-0.56153,1.5251-1.001,2.0947-0.43947,0.56966-0.97495,1.0042-1.6064,1.3037-0.63152,0.29948-1.3542,0.44922-2.168,0.44922-0.70313,0-1.3509-0.1237-1.9434-0.37109-0.59245-0.2474-1.1035-0.6364-1.5332-1.167-0.42969-0.53059-0.76498-1.2093-1.0059-2.0361-0.24089-0.82682-0.36133-1.8164-0.36133-2.9688,0-1.0482,0.11556-1.9857,0.34668-2.8125,0.23112-0.82681,0.56478-1.525,1.001-2.0947,0.43619-0.56964,0.9733-1.0042,1.6113-1.3037,0.63801-0.29946,1.3607-0.4492,2.168-0.44921,0.70311,0.00001,1.3509,0.12371,1.9434,0.37109,0.59244,0.24741,1.1019,0.63478,1.5283,1.1621,0.42643,0.52735,0.76009,1.2044,1.001,2.0312,0.24088,0.82683,0.36132,1.8197,0.36133,2.9785zm-7.5586,0.0391c-0.00001,0.13021-0.00001,0.25228,0,0.36621-0.00001,0.11394,0.007,0.2295,0.0195,0.34668l4.7852-3.457c-0.22787-0.64453-0.52898-1.1214-0.90332-1.4307-0.37435-0.30923-0.81543-0.46385-1.3232-0.46387-0.36459,0.00002-0.70313,0.0928-1.0156,0.27832-0.31251,0.18556-0.58432,0.47039-0.81543,0.8545-0.23113,0.38412-0.41342,0.86589-0.54688,1.4453-0.13347,0.57943-0.2002,1.2663-0.20019,2.0606zm5.1562,0.0391c-0.00001-0.11067-0.003-0.22298-0.01-0.33692-0.007-0.11392-0.01-0.22297-0.01-0.32714l-4.7558,3.4375c0.20833,0.63151,0.50129,1.1003,0.8789,1.4062,0.3776,0.30599,0.81705,0.45898,1.3184,0.45898,0.36458,0,0.70475-0.0944,1.0205-0.2832s0.58918-0.47363,0.82031-0.85449c0.23111-0.38086,0.41178-0.86263,0.54199-1.4453,0.1302-0.58267,0.19531-1.2679,0.19532-2.0557z" stroke="#000"/>
  </g>
  <path stroke-linejoin="round" d="m366.48,157.63,0,54.673" stroke="url(#linearGradient4658)" stroke-linecap="butt" stroke-miterlimit="4" stroke-dasharray="none" stroke-width="5" fill="none"/>
  <g transform="matrix(2,0,0,2,-308.01568,-243.09091)">
   <g style="letter-spacing:0px;word-spacing:0px;" font-family="Sans" font-size="40px" line-height="125%" font-style="normal" font-weight="normal" fill="#000">
    <path d="m321.22,281.72-2.5781,0-1.8281-3.0391c-0.3698-0.61458-0.68491-1.0182-0.94532-1.2109-0.26042-0.19271-0.54167-0.28906-0.84375-0.28906h-0.8125v4.5391h-2.2266v-11.5h3.9062c2.6562,0.00001,3.9844,1.0365,3.9844,3.1094-0.00001,0.76043-0.22267,1.4206-0.66797,1.9805-0.44532,0.5599-1.0794,0.95704-1.9024,1.1914v0.0312c0.52604,0.17709,1.1068,0.76823,1.7422,1.7734zm-7.0078-9.7656,0,3.4844,1.3281,0c0.60416,0,1.0872-0.17578,1.4492-0.52735,0.36197-0.35155,0.54296-0.79035,0.54297-1.3164-0.00001-1.0937-0.65105-1.6406-1.9531-1.6406z"/>
    <path d="m330.71,277.73-3.1328,0,0,3.1328-1.4531,0,0-3.1328-3.1406,0,0-1.4609,3.1406,0,0-3.1406,1.4531,0,0,3.1406,3.1328,0z"/>
    <path d="m343.15,280.94c-1.1302,0.65625-2.4948,0.98437-4.0938,0.98437-1.7812,0-3.1979-0.51692-4.25-1.5508-1.0521-1.0338-1.5781-2.4414-1.5781-4.2226,0-1.7917,0.57291-3.2591,1.7188-4.4024,1.1458-1.1432,2.6614-1.7148,4.5469-1.7148,1.2292,0.00001,2.2969,0.17709,3.2031,0.53125v2.1641c-0.88543-0.53645-1.974-0.80468-3.2656-0.80469-1.1406,0.00001-2.069,0.37631-2.7852,1.1289-0.71615,0.75261-1.0742,1.7461-1.0742,2.9805,0,1.2604,0.32291,2.2409,0.96875,2.9414,0.64583,0.70053,1.5312,1.0508,2.6562,1.0508,0.68749,0,1.2604-0.11198,1.7188-0.33594v-2.5391h-2.3594v-1.8125h4.5938z"/>
    <path d="m352.57,277.2-5.8398,0,0-1.6016,5.8398,0z"/>
    <path d="m356.54,281.72,0-11.5,3.9141,0c1.1823,0.00001,2.1068,0.23569,2.7734,0.70703,0.66665,0.47136,0.99999,1.1289,1,1.9727-0.00001,0.61459-0.19533,1.1576-0.58594,1.6289-0.39063,0.47136-0.91668,0.8086-1.5781,1.0117v0.0234c0.8125,0.10417,1.4583,0.40625,1.9375,0.90625,0.47916,0.5,0.71874,1.1198,0.71875,1.8594-0.00001,1.0313-0.3698,1.8542-1.1094,2.4688-0.73959,0.61459-1.7292,0.92188-2.9688,0.92188zm2.2266-9.7891,0,3.0156,1.2109,0c0.59895,0.00001,1.0677-0.14192,1.4062-0.42578,0.33853-0.28385,0.5078-0.68359,0.50781-1.1992-0.00001-0.92707-0.66147-1.3906-1.9844-1.3906zm0,4.7344,0,3.3438,1.5312,0c0.65624,0,1.1667-0.15104,1.5312-0.45312,0.36458-0.30209,0.54687-0.72136,0.54687-1.2578,0-1.0885-0.71875-1.6328-2.1562-1.6328z"/>
   </g>
   <g stroke-linejoin="round" transform="translate(288,0)" stroke-linecap="butt" stroke-miterlimit="4" stroke-dasharray="none" stroke-width="2.5" fill="none">
    <path d="m26.98,263.53,0-27.337" stroke="url(#linearGradient6367)"/>
    <path d="m49.25,263.53,0-27.337" stroke="url(#linearGradient6401)"/>
    <path d="m71.52,263.53,0-27.337" stroke="url(#linearGradient6435)"/>
   </g>
  </g>
  <g style="letter-spacing:0px;word-spacing:0px;" font-weight="normal" transform="matrix(2,0,0,2,-308.01568,-243.09091)" font-size="40px" font-style="normal" font-family="Sans" line-height="125%" fill="#000">
   <path d="m177.4,283.13-2.5781,0-1.8281-3.0391c-0.36979-0.61458-0.6849-1.0182-0.94531-1.2109-0.26042-0.1927-0.54167-0.28905-0.84375-0.28906h-0.8125v4.5391h-2.2266v-11.5h3.9062c2.6562,0.00001,3.9844,1.0365,3.9844,3.1094-0.00001,0.76042-0.22266,1.4206-0.66797,1.9805-0.44532,0.5599-1.0794,0.95703-1.9023,1.1914v0.0312c0.52604,0.17709,1.1068,0.76824,1.7422,1.7734zm-7.0078-9.7656,0,3.4844,1.3281,0c0.60416,0.00001,1.0872-0.17577,1.4492-0.52734,0.36198-0.35156,0.54297-0.79036,0.54297-1.3164,0-1.0937-0.65104-1.6406-1.9531-1.6406z"/>
   <path d="m186.89,279.14-3.1328,0,0,3.1328-1.4531,0,0-3.1328-3.1406,0,0-1.4609,3.1406,0,0-3.1406,1.4531,0,0,3.1406,3.1328,0z"/>
   <path d="m190.14,283.13,0-11.5,3.9141,0c1.1823,0.00001,2.1068,0.23569,2.7734,0.70703,0.66666,0.47137,0.99999,1.1289,1,1.9727-0.00001,0.61459-0.19532,1.1576-0.58594,1.6289-0.39063,0.47136-0.91667,0.8086-1.5781,1.0117v0.0234c0.81249,0.10418,1.4583,0.40626,1.9375,0.90625,0.47915,0.50001,0.71874,1.1198,0.71875,1.8594-0.00001,1.0312-0.3698,1.8542-1.1094,2.4688-0.73959,0.61458-1.7292,0.92187-2.9688,0.92187zm2.2266-9.7891,0,3.0156,1.2109,0c0.59895,0,1.0677-0.14192,1.4062-0.42579,0.33853-0.28384,0.5078-0.68358,0.50781-1.1992-0.00001-0.92708-0.66146-1.3906-1.9844-1.3906zm0,4.7344,0,3.3438,1.5312,0c0.65625,0,1.1667-0.15104,1.5312-0.45313,0.36458-0.30208,0.54687-0.72135,0.54688-1.2578-0.00001-1.0885-0.71876-1.6328-2.1562-1.6328z"/>
   <path d="m207.38,278.61-5.8398,0,0-1.6016,5.8398,0z"/>
   <path d="m220.54,282.35c-1.1302,0.65625-2.4948,0.98438-4.0938,0.98438-1.7813,0-3.1979-0.51693-4.25-1.5508-1.0521-1.0338-1.5781-2.4414-1.5781-4.2227,0-1.7917,0.57292-3.2591,1.7188-4.4023,1.1458-1.1432,2.6614-1.7148,4.5469-1.7148,1.2292,0.00001,2.2969,0.1771,3.2031,0.53125v2.1641c-0.88542-0.53645-1.974-0.80468-3.2656-0.80469-1.1406,0.00001-2.069,0.37631-2.7852,1.1289-0.71615,0.75262-1.0742,1.7461-1.0742,2.9805,0,1.2604,0.32291,2.2409,0.96875,2.9414,0.64583,0.70052,1.5312,1.0508,2.6562,1.0508,0.68749,0,1.2604-0.11198,1.7188-0.33594v-2.5391h-2.3594v-1.8125h4.5938z"/>
  </g>
  <path stroke-linejoin="round" d="m33.944,283.98,0-54.673" stroke="url(#linearGradient4925)" stroke-linecap="butt" stroke-miterlimit="4" stroke-dasharray="none" stroke-width="5" fill="none"/>
  <path stroke-linejoin="round" d="m123.02,283.98,0-54.673" stroke="url(#linearGradient4922)" stroke-linecap="butt" stroke-miterlimit="4" stroke-dasharray="none" stroke-width="5" fill="none"/>
  <path stroke-linejoin="round" d="m78.484,283.98,0-54.673" stroke="url(#linearGradient4919)" stroke-linecap="butt" stroke-miterlimit="4" stroke-dasharray="none" stroke-width="5" fill="none"/>
  <text style="letter-spacing:0px;word-spacing:0px;" font-weight="normal" xml:space="preserve" font-variant="normal" font-size="20px" font-stretch="normal" font-style="normal" y="18.365448" x="542.85559" font-family="Sans" line-height="125%" fill="#000000"><tspan y="18.365448" x="542.85559">Trichromatic cone cells respond positively</tspan><tspan y="43.365448" x="542.85559">to one of three frequencies exhibited by</tspan><tspan y="68.365448" x="542.85559">photons arriving on their surface.</tspan></text>
  <text style="letter-spacing:0px;word-spacing:0px;" line-height="125%" font-weight="normal" font-variant="normal" font-size="20px" font-stretch="normal" font-style="normal" y="292.02792" x="542.85559" font-family="Sans" xml:space="preserve" fill="#000000"><tspan y="292.02792" x="542.85559">The three color channels are discovered</tspan><tspan y="317.02792" x="542.85559">by nearby opponent cells.</tspan><tspan y="342.02792" x="542.85559"/><tspan y="367.02792" x="542.85559">Opponent cells tuned to luminosity are</tspan><tspan y="392.02792" x="542.85559">excited by the red, green, and blue</tspan><tspan y="417.02792" x="542.85559">color signals.</tspan><tspan y="442.02792" x="542.85559"/><tspan y="467.02792" x="542.85559">Cg cells are excited by red and blue and</tspan><tspan y="492.02792" x="542.85559">inhibited by green. Cb cells are excited</tspan><tspan y="517.02795" x="542.85559">by red and green and inhibited by blue.</tspan></text>
 </g>
</svg>
